<?xml version="1.0" encoding="UTF-8" standalone="no"?>
<svg
   xmlns:dc="http://purl.org/dc/elements/1.1/"
   xmlns:cc="http://creativecommons.org/ns#"
   xmlns:rdf="http://www.w3.org/1999/02/22-rdf-syntax-ns#"
   xmlns:svg="http://www.w3.org/2000/svg"
   xmlns="http://www.w3.org/2000/svg"
   xmlns:sodipodi="http://sodipodi.sourceforge.net/DTD/sodipodi-0.dtd"
   xmlns:inkscape="http://www.inkscape.org/namespaces/inkscape"
   version="1.1"
   id="svg2"
   xml:space="preserve"
   width="164.21201"
   height="133.33333"
   viewBox="0 0 164.21201 133.33333"
   sodipodi:docname="Picto-Interlocuteur-unique.ai"><metadata
     id="metadata8"><rdf:RDF><cc:Work
         rdf:about=""><dc:format>image/svg+xml</dc:format><dc:type
           rdf:resource="http://purl.org/dc/dcmitype/StillImage" /></cc:Work></rdf:RDF></metadata><defs
     id="defs6"><clipPath
       clipPathUnits="userSpaceOnUse"
       id="clipPath18"><path
         d="M 0,100 H 123.159 V 0 H 0 Z"
         id="path16" /></clipPath></defs><sodipodi:namedview
     pagecolor="#ffffff"
     bordercolor="#666666"
     borderopacity="1"
     objecttolerance="10"
     gridtolerance="10"
     guidetolerance="10"
     inkscape:pageopacity="0"
     inkscape:pageshadow="2"
     inkscape:window-width="640"
     inkscape:window-height="480"
     id="namedview4" /><g
     id="g10"
     inkscape:groupmode="layer"
     inkscape:label="Picto-Interlocuteur-unique"
     transform="matrix(1.3333333,0,0,-1.3333333,0,133.33333)"><g
       id="g12"><g
         id="g14"
         clip-path="url(#clipPath18)"><g
           id="g20"
           transform="translate(91.8815,85.6338)"><path
             d="m 0,0 c -0.656,0 -1.19,0.535 -1.19,1.191 0,0.656 0.534,1.191 1.19,1.191 h 8.164 c 0.656,0 1.19,-0.535 1.19,-1.191 C 9.354,0.535 8.82,0 8.164,0 Z"
             style="fill:#ea4e78;fill-opacity:1;fill-rule:nonzero;stroke:none"
             id="path22" /></g><g
           id="g24"
           transform="translate(98.2887,13.7988)"><path
             d="m 0,0 c 0.651,0 1.182,0.53 1.182,1.183 v 7.435 c 0,3.867 -1.19,7.566 -3.441,10.695 -1.083,1.506 -2.384,2.837 -3.865,3.955 -1.498,1.129 -3.15,2.018 -4.913,2.641 -0.297,0.106 -0.618,0.089 -0.903,-0.047 -0.286,-0.136 -0.5,-0.375 -0.605,-0.673 -0.218,-0.614 0.106,-1.291 0.72,-1.508 6.366,-2.252 10.642,-8.306 10.642,-15.063 V 1.183 C -1.183,0.53 -0.652,0 0,0"
             style="fill:#ea4e78;fill-opacity:1;fill-rule:nonzero;stroke:none"
             id="path26" /></g><g
           id="g28"
           transform="translate(57.5324,49.4463)"><path
             d="M 0,0 C -0.093,0 -0.185,0.008 -0.274,0.025 -0.616,0.088 -0.928,0.271 -1.153,0.539 -1.381,0.81 -1.506,1.153 -1.506,1.507 l 0.001,1.415 c 10e-4,0.599 -0.426,1.113 -1.015,1.222 -0.074,0.013 -0.15,0.02 -0.226,0.02 -0.331,0 -0.643,-0.129 -0.878,-0.363 -0.197,-0.197 -0.32,-0.45 -0.354,-0.723 -0.643,0.254 -1.229,0.708 -1.671,1.301 -0.287,0.385 -0.511,0.818 -0.665,1.287 -0.161,0.488 -0.243,1.002 -0.242,1.527 0,0.526 0.082,1.039 0.244,1.527 0.155,0.469 0.38,0.902 0.667,1.286 0.441,0.59 1.024,1.042 1.664,1.296 L -3.985,5.969 c -0.001,-0.599 0.426,-1.113 1.014,-1.221 0.074,-0.014 0.15,-0.021 0.226,-0.021 0.684,0 1.242,0.556 1.242,1.24 l 0.005,6.905 c 10e-4,0.402 0.158,0.78 0.442,1.065 0.285,0.284 0.662,0.44 1.064,0.44 0.094,0 0.188,-0.009 0.278,-0.025 0.298,-0.056 0.571,-0.2 0.788,-0.417 C 1.358,13.65 1.515,13.272 1.514,12.87 1.514,12.833 1.513,10.866 1.511,8.579 1.508,8.441 1.506,8.302 1.506,8.164 1.506,8.042 1.508,7.913 1.511,7.78 1.508,4.803 1.506,1.604 1.506,1.505 1.505,1.103 1.349,0.725 1.064,0.44 0.779,0.156 0.401,0 0,0 m 4.05,23.734 c 0.278,-0.085 0.57,-0.13 0.855,-0.13 0.738,0 1.443,0.277 1.984,0.778 2.815,2.606 6.933,4.1 11.3,4.1 4.379,0 8.503,-1.494 11.314,-4.099 0.542,-0.502 1.247,-0.779 1.986,-0.779 0.284,0 0.576,0.045 0.853,0.129 1.52,-2.028 2.422,-4.418 2.682,-7.106 -0.557,-0.199 -1.054,-0.514 -1.477,-0.938 -0.102,-0.102 -0.199,-0.21 -0.289,-0.323 -0.816,1.707 -1.911,3.253 -3.258,4.6 -1.534,1.533 -3.318,2.736 -5.306,3.577 -2.059,0.871 -4.244,1.312 -6.497,1.312 -2.253,0 -4.439,-0.441 -6.497,-1.312 C 9.712,22.702 7.927,21.499 6.395,19.966 5.044,18.616 3.947,17.065 3.13,15.354 c -0.093,0.117 -0.193,0.229 -0.299,0.335 -0.422,0.423 -0.918,0.738 -1.475,0.937 0.265,2.688 1.17,5.078 2.694,7.108 m 0.557,3.113 c 1.754,1.625 3.881,2.888 6.321,3.755 2.28,0.811 4.791,1.239 7.261,1.239 2.475,0 4.989,-0.428 7.271,-1.237 2.445,-0.868 4.573,-2.132 6.327,-3.757 0.086,-0.079 0.135,-0.188 0.14,-0.305 0.004,-0.117 -0.037,-0.229 -0.117,-0.314 -0.083,-0.091 -0.198,-0.141 -0.321,-0.141 -0.112,0 -0.217,0.041 -0.298,0.117 -3.266,3.025 -8.005,4.76 -13.002,4.76 -4.985,0 -9.719,-1.735 -12.986,-4.76 -0.081,-0.076 -0.187,-0.117 -0.298,-0.117 -0.123,0 -0.238,0.05 -0.322,0.141 -0.079,0.085 -0.121,0.197 -0.116,0.314 0.004,0.118 0.054,0.226 0.14,0.305 M 36.092,14.352 c 0.09,0.016 0.184,0.025 0.277,0.025 0.402,0 0.781,-0.156 1.065,-0.44 0.284,-0.285 0.441,-0.663 0.441,-1.065 l 0.006,-6.905 c 0,-0.684 0.557,-1.24 1.242,-1.24 0.076,0 0.152,0.007 0.226,0.021 0.588,0.108 1.015,0.622 1.015,1.221 l -0.005,5.333 c 0.64,-0.254 1.223,-0.706 1.664,-1.296 C 42.31,9.622 42.535,9.189 42.69,8.72 42.852,8.232 42.934,7.719 42.934,7.193 42.935,6.668 42.853,6.154 42.693,5.666 42.538,5.197 42.314,4.764 42.027,4.379 41.584,3.786 41,3.332 40.356,3.078 40.323,3.351 40.2,3.604 40.001,3.801 39.767,4.036 39.456,4.164 39.122,4.164 39.047,4.164 38.973,4.157 38.898,4.144 38.31,4.035 37.883,3.521 37.883,2.922 L 37.884,1.507 C 37.884,1.153 37.759,0.81 37.532,0.539 37.306,0.271 36.994,0.088 36.653,0.025 36.563,0.008 36.471,0 36.379,0 35.977,0 35.599,0.156 35.314,0.44 35.03,0.725 34.873,1.103 34.873,1.505 l -0.005,5.838 c 0.013,0.271 0.02,0.547 0.02,0.821 0,0.282 -0.008,0.568 -0.021,0.85 l -0.003,3.856 c 0,0.402 0.156,0.78 0.44,1.065 0.217,0.217 0.489,0.361 0.788,0.417 M 18.197,-6.04 C 10.384,-6.04 4.013,0.316 3.993,8.128 v 0.081 c 0.025,7.808 6.396,14.159 14.204,14.159 7.596,0 13.827,-5.939 14.187,-13.522 L 32.385,7.501 C 32.037,-0.092 25.805,-6.04 18.197,-6.04 m -2.333,-6.014 h 2.723 c 0.391,0 0.708,-0.317 0.708,-0.708 0,-0.389 -0.317,-0.707 -0.708,-0.707 h -2.723 c -0.39,0 -0.707,0.318 -0.707,0.707 0,0.391 0.317,0.708 0.707,0.708 m 0,-3.884 h 2.723 c 0.854,0 1.656,0.335 2.257,0.943 0.602,0.607 0.928,1.411 0.92,2.265 -0.017,1.734 -1.456,3.145 -3.209,3.145 h -2.691 c -1.265,0 -2.415,-0.763 -2.914,-1.913 -3.1,0.183 -5.99,1.241 -8.151,2.988 -2.112,1.708 -3.336,3.925 -3.457,6.259 0.551,0.196 1.058,0.518 1.476,0.935 0.363,0.362 0.652,0.79 0.851,1.255 0.74,-1.305 1.655,-2.506 2.726,-3.577 1.532,-1.533 3.317,-2.736 5.305,-3.577 2.058,-0.87 4.244,-1.312 6.497,-1.312 2.253,0 4.438,0.442 6.497,1.312 1.988,0.841 3.772,2.044 5.306,3.577 1.066,1.066 1.978,2.263 2.716,3.562 0.2,-0.46 0.486,-0.883 0.844,-1.24 0.753,-0.752 1.754,-1.166 2.818,-1.166 0.246,0 0.49,0.022 0.727,0.066 0.77,0.142 1.478,0.509 2.046,1.06 0.52,0.503 0.891,1.131 1.078,1.82 0.476,0.092 0.943,0.244 1.391,0.454 0.752,0.353 1.424,0.854 2,1.491 1.16,1.285 1.798,2.985 1.797,4.786 -0.001,1.802 -0.642,3.5 -1.805,4.784 -0.575,0.636 -1.249,1.137 -2.002,1.488 -0.446,0.208 -0.913,0.36 -1.391,0.45 -0.18,0.67 -0.535,1.281 -1.031,1.776 -0.472,0.471 -1.05,0.815 -1.68,1.002 -0.131,1.468 -0.427,2.877 -0.883,4.191 -0.566,1.635 -1.386,3.156 -2.437,4.52 0.16,0.387 0.235,0.81 0.22,1.231 -0.031,0.78 -0.362,1.501 -0.934,2.031 -2.003,1.856 -4.42,3.294 -7.183,4.275 -2.546,0.903 -5.348,1.381 -8.102,1.381 -2.75,0 -5.548,-0.478 -8.093,-1.383 C 7.337,31.96 4.923,30.523 2.92,28.669 2.348,28.139 2.016,27.417 1.986,26.638 1.97,26.217 2.045,25.794 2.205,25.408 1.149,24.039 0.326,22.515 -0.243,20.875 -0.698,19.563 -0.996,18.159 -1.128,16.696 -1.759,16.509 -2.337,16.165 -2.81,15.693 -3.306,15.198 -3.661,14.586 -3.841,13.917 -4.318,13.827 -4.786,13.675 -5.231,13.467 -5.984,13.116 -6.658,12.615 -7.234,11.979 -8.396,10.695 -9.037,8.997 -9.039,7.195 -9.04,5.394 -8.402,3.694 -7.241,2.409 c 0.574,-0.637 1.248,-1.138 2,-1.491 0.447,-0.21 0.915,-0.362 1.39,-0.454 0.361,-1.324 1.408,-2.394 2.724,-2.784 0.069,-1.515 0.48,-2.985 1.223,-4.369 0.777,-1.449 1.883,-2.744 3.286,-3.85 1.383,-1.089 2.987,-1.943 4.769,-2.537 1.521,-0.507 3.128,-0.808 4.775,-0.894 0.486,-1.182 1.648,-1.968 2.938,-1.968"
             style="fill:#ea4e78;fill-opacity:1;fill-rule:nonzero;stroke:none"
             id="path30" /></g><g
           id="g32"
           transform="translate(86.8581,25.3584)"><path
             d="m 0,0 c -0.687,0 -1.244,-0.559 -1.244,-1.244 v -9.133 c 0,-0.686 0.557,-1.244 1.244,-1.244 0.686,0 1.243,0.558 1.243,1.244 v 9.133 C 1.243,-0.559 0.686,0 0,0"
             style="fill:#ea4e78;fill-opacity:1;fill-rule:nonzero;stroke:none"
             id="path34" /></g><g
           id="g36"
           transform="translate(57.3693,37.1211)"><path
             d="m 0,0 v 0 c -1.399,-0.984 -2.67,-2.283 -3.886,-3.973 -2.258,-3.14 -3.451,-6.851 -3.451,-10.731 v -7.436 c 0,-0.685 0.557,-1.244 1.243,-1.244 0.686,0 1.243,0.559 1.243,1.244 v 7.436 c 0,5.056 2.314,9.692 6.349,12.72 0.256,0.191 0.421,0.497 0.454,0.837 0.034,0.356 -0.078,0.707 -0.308,0.96 C 1.287,0.208 0.557,0.391 0,0"
             style="fill:#ea4e78;fill-opacity:1;fill-rule:nonzero;stroke:none"
             id="path38" /></g><g
           id="g40"
           transform="translate(62.7067,25.3584)"><path
             d="m 0,0 c -0.686,0 -1.244,-0.559 -1.244,-1.244 v -9.133 c 0,-0.686 0.558,-1.244 1.243,-1.244 0.687,0 1.244,0.558 1.244,1.244 v 9.133 C 1.243,-0.559 0.686,0 0,0"
             style="fill:#ea4e78;fill-opacity:1;fill-rule:nonzero;stroke:none"
             id="path42" /></g><g
           id="g44"
           transform="translate(36.5426,55.5938)"><path
             d="m 0,0 c -0.18,0.1 -0.381,0.151 -0.583,0.151 -0.132,0 -0.263,-0.022 -0.39,-0.065 -1.444,-0.495 -4.484,-0.75 -4.706,-0.768 l -11.837,-0.011 c -7.974,0 -14.461,6.487 -14.461,14.461 0,7.974 6.487,14.461 14.461,14.461 h 0.099 l 0.017,0.014 h 11.458 v -0.014 h 0.275 c 7.973,0 14.46,-6.487 14.46,-14.461 C 8.793,10.229 7.501,6.822 5.155,4.177 4.899,3.888 4.797,3.49 4.883,3.112 l 1.529,-6.674 z m 8.183,-7.12 c 0.262,0 0.512,0.084 0.721,0.241 0.379,0.284 0.555,0.766 0.45,1.228 L 7.359,3.06 c 2.474,3.008 3.836,6.807 3.836,10.708 0,2.276 -0.446,4.484 -1.326,6.564 -0.849,2.008 -2.065,3.812 -3.613,5.359 -1.548,1.549 -3.351,2.765 -5.36,3.614 -1.996,0.844 -4.11,1.289 -6.29,1.323 v 0.016 h -12.397 v -0.016 c -2.178,-0.034 -4.293,-0.479 -6.289,-1.323 -2.008,-0.849 -3.812,-2.065 -5.359,-3.614 -1.549,-1.547 -2.765,-3.351 -3.614,-5.359 -0.88,-2.08 -1.325,-4.288 -1.325,-6.564 0,-2.276 0.445,-4.484 1.325,-6.564 0.849,-2.008 2.065,-3.811 3.614,-5.36 1.547,-1.548 3.351,-2.763 5.359,-3.613 2.08,-0.879 4.288,-1.326 6.564,-1.326 h 11.849 c 1.689,0 3.357,0.25 4.958,0.742 L 7.6,-6.969 C 7.778,-7.067 7.979,-7.12 8.183,-7.12"
             style="fill:#ea4e78;fill-opacity:1;fill-rule:nonzero;stroke:none"
             id="path46" /></g><g
           id="g48"
           transform="translate(17.3932,76.1284)"><path
             d="m 0,0 h 14.769 c 0.667,0 1.21,0.543 1.21,1.21 0,0.667 -0.543,1.21 -1.21,1.21 H 0 C -0.667,2.42 -1.21,1.877 -1.21,1.21 -1.21,0.543 -0.667,0 0,0"
             style="fill:#ea4e78;fill-opacity:1;fill-rule:nonzero;stroke:none"
             id="path50" /></g><g
           id="g52"
           transform="translate(32.1623,62.9292)"><path
             d="m 0,0 h -14.769 c -0.668,0 -1.21,-0.542 -1.21,-1.21 0,-0.667 0.542,-1.21 1.21,-1.21 H 0 c 0.667,0 1.21,0.543 1.21,1.21 C 1.21,-0.542 0.667,0 0,0"
             style="fill:#ea4e78;fill-opacity:1;fill-rule:nonzero;stroke:none"
             id="path54" /></g><g
           id="g56"
           transform="translate(36.4123,70.7388)"><path
             d="m 0,0 h -23.269 c -0.668,0 -1.21,-0.542 -1.21,-1.21 0,-0.667 0.542,-1.21 1.21,-1.21 H 0 c 0.667,0 1.21,0.543 1.21,1.21 C 1.21,-0.542 0.667,0 0,0"
             style="fill:#ea4e78;fill-opacity:1;fill-rule:nonzero;stroke:none"
             id="path58" /></g><g
           id="g60"
           transform="translate(117.3278,89.6167)"><path
             d="m 0,0 c -1.889,1.888 -4.399,2.928 -7.069,2.928 h -28.59 c -2.349,0 -4.632,-0.832 -6.43,-2.341 -0.242,-0.205 -0.391,-0.492 -0.42,-0.809 -0.027,-0.318 0.071,-0.627 0.275,-0.869 0.226,-0.269 0.559,-0.424 0.913,-0.424 0.279,0 0.55,0.099 0.764,0.278 1.369,1.151 3.108,1.784 4.898,1.784 h 28.59 c 4.2,0 7.616,-3.417 7.616,-7.617 v -35.92 -3.434 -27.641 c 0,-4.2 -3.416,-7.617 -7.616,-7.617 h -28.59 c -1.79,0 -3.529,0.633 -4.898,1.784 -0.214,0.179 -0.485,0.277 -0.764,0.277 -0.354,0 -0.687,-0.154 -0.913,-0.423 -0.204,-0.243 -0.302,-0.551 -0.275,-0.869 0.029,-0.317 0.178,-0.605 0.42,-0.809 1.798,-1.509 4.081,-2.341 6.43,-2.341 h 28.59 c 2.67,0 5.18,1.04 7.069,2.928 1.889,1.889 2.928,4.399 2.928,7.07 v 27.641 3.434 35.92 C 2.928,-4.4 1.889,-1.889 0,0"
             style="fill:#ea4e78;fill-opacity:1;fill-rule:nonzero;stroke:none"
             id="path62" /></g></g></g></g></svg>
