<?xml version="1.0" encoding="UTF-8" standalone="no"?>
<svg
   xmlns:dc="http://purl.org/dc/elements/1.1/"
   xmlns:cc="http://creativecommons.org/ns#"
   xmlns:rdf="http://www.w3.org/1999/02/22-rdf-syntax-ns#"
   xmlns:svg="http://www.w3.org/2000/svg"
   xmlns="http://www.w3.org/2000/svg"
   xmlns:sodipodi="http://sodipodi.sourceforge.net/DTD/sodipodi-0.dtd"
   xmlns:inkscape="http://www.inkscape.org/namespaces/inkscape"
   version="1.1"
   id="svg2"
   xml:space="preserve"
   width="149.33333"
   height="133.33333"
   viewBox="0 0 149.33333 133.33333"
   sodipodi:docname="Picto-Etude-technique.ai"><metadata
     id="metadata8"><rdf:RDF><cc:Work
         rdf:about=""><dc:format>image/svg+xml</dc:format><dc:type
           rdf:resource="http://purl.org/dc/dcmitype/StillImage" /></cc:Work></rdf:RDF></metadata><defs
     id="defs6"><clipPath
       clipPathUnits="userSpaceOnUse"
       id="clipPath18"><path
         d="M 0,100 H 112 V 0 H 0 Z"
         id="path16" /></clipPath></defs><sodipodi:namedview
     pagecolor="#ffffff"
     bordercolor="#666666"
     borderopacity="1"
     objecttolerance="10"
     gridtolerance="10"
     guidetolerance="10"
     inkscape:pageopacity="0"
     inkscape:pageshadow="2"
     inkscape:window-width="640"
     inkscape:window-height="480"
     id="namedview4" /><g
     id="g10"
     inkscape:groupmode="layer"
     inkscape:label="Picto-Etude-technique"
     transform="matrix(1.3333333,0,0,-1.3333333,0,133.33333)"><g
       id="g12"><g
         id="g14"
         clip-path="url(#clipPath18)"><g
           id="g20"
           transform="translate(28.0347,55.9395)"><path
             d="M 0,0 C -0.06,0 -0.121,0.004 -0.184,0.012 -0.288,0.023 -0.396,0.049 -0.505,0.083 L -3.233,1.114 C -3.922,1.376 -4.353,2.07 -4.281,2.803 L -3.8,7.448 c 0.077,0.739 0.642,1.333 1.375,1.447 l 2.544,0.394 c 0.072,0.159 0.148,0.317 0.226,0.474 0.225,0.463 0.464,0.896 0.709,1.287 l -1.05,2.328 c -0.304,0.676 -0.115,1.474 0.46,1.941 l 3.619,2.936 c 0.29,0.235 0.657,0.364 1.034,0.364 0.065,0 0.131,-0.004 0.196,-0.012 0.276,-0.034 0.541,-0.138 0.765,-0.301 l 2.079,-1.521 c 0.616,0.231 1.254,0.42 1.898,0.565 l 0.911,2.406 c 0.238,0.633 0.852,1.057 1.528,1.057 0.056,0 0.113,-0.002 0.17,-0.008 l 4.635,-0.484 c 0.358,-0.044 0.664,-0.181 0.913,-0.402 0.288,-0.25 0.48,-0.599 0.539,-0.981 l 0.395,-2.542 c 0.597,-0.273 1.182,-0.59 1.74,-0.946 l 2.347,1.06 c 0.213,0.094 0.439,0.143 0.671,0.143 0.067,0 0.134,-0.004 0.2,-0.012 0.423,-0.052 0.803,-0.262 1.071,-0.592 l 2.934,-3.62 c 0.467,-0.576 0.488,-1.397 0.05,-1.995 L 26.458,8.108 C 26.191,7.716 25.752,7.469 25.317,7.469 c -0.047,0 -0.094,0.003 -0.141,0.009 -0.227,0.028 -0.436,0.12 -0.619,0.273 -0.562,0.469 -0.464,1.224 -0.134,1.727 l 1.387,1.896 -2.143,2.642 -2.394,-1.079 c -0.16,-0.072 -0.329,-0.109 -0.503,-0.109 -0.05,0 -0.101,0.003 -0.151,0.01 -0.2,0.024 -0.393,0.099 -0.558,0.216 -0.77,0.545 -1.603,0.997 -2.475,1.343 -0.402,0.159 -0.693,0.523 -0.759,0.952 l -0.206,1.331 0.18,0.132 -0.198,-0.032 -0.183,1.161 -3.388,0.351 -0.925,-2.445 C 11.955,15.442 11.594,15.145 11.168,15.071 10.241,14.913 9.333,14.643 8.469,14.269 8.314,14.202 8.151,14.168 7.983,14.168 c -0.05,0 -0.1,0.003 -0.15,0.01 -0.205,0.024 -0.403,0.102 -0.574,0.225 l -2.12,1.552 -2.642,-2.143 0.881,-1.953 c 0.036,-0.05 0.077,-0.134 0.108,-0.222 L 3.585,11.409 C 3.76,11.019 3.715,10.555 3.465,10.203 2.92,9.434 2.469,8.601 2.123,7.728 1.962,7.326 1.598,7.036 1.171,6.97 L -1.423,6.567 -1.775,3.184 0.509,2.319 C 0.771,2.221 1.005,1.988 1.136,1.697 1.27,1.398 1.282,1.071 1.17,0.776 1.034,0.418 0.646,0 0,0"
             style="fill:#ea4e78;fill-opacity:1;fill-rule:nonzero;stroke:none"
             id="path22" /></g><g
           id="g24"
           transform="translate(34.6392,56.8223)"><path
             d="m 0,0 c -0.054,0 -0.106,0.003 -0.159,0.01 -0.54,0.066 -0.986,0.468 -1.106,1.001 -0.333,1.465 -0.248,2.991 0.247,4.413 0.508,1.462 1.426,2.737 2.654,3.689 1.413,1.096 3.106,1.675 4.894,1.675 2.499,0 4.808,-1.129 6.333,-3.097 0.713,-0.919 1.207,-1.955 1.47,-3.08 C 14.495,3.914 14.06,3.215 13.363,3.052 13.266,3.028 13.166,3.018 13.067,3.018 12.46,3.018 11.941,3.43 11.803,4.021 11.626,4.779 11.292,5.479 10.811,6.101 9.78,7.43 8.221,8.191 6.533,8.191 5.325,8.191 4.182,7.801 3.227,7.061 1.572,5.778 0.802,3.629 1.267,1.586 1.344,1.248 1.285,0.899 1.1,0.606 0.915,0.312 0.626,0.109 0.288,0.032 0.194,0.011 0.096,0 0,0"
             style="fill:#ea4e78;fill-opacity:1;fill-rule:nonzero;stroke:none"
             id="path26" /></g><g
           id="g28"
           transform="translate(26.3994,30.8057)"><path
             d="m 0,0 c -2.443,0 -4.51,-1.83 -4.809,-4.258 -0.326,-2.653 1.568,-5.078 4.222,-5.404 0.2,-0.025 0.399,-0.036 0.595,-0.036 2.443,0 4.51,1.83 4.808,4.258 0.159,1.283 -0.194,2.552 -0.992,3.574 -0.799,1.022 -1.945,1.672 -3.228,1.83 C 0.396,-0.012 0.197,0 0,0 m 0.009,-12.296 c -0.301,0 -0.607,0.019 -0.913,0.057 -4.075,0.502 -6.983,4.224 -6.482,8.299 0.458,3.727 3.633,6.538 7.385,6.538 0.302,0 0.607,-0.019 0.914,-0.057 C 4.987,2.04 7.895,-1.683 7.395,-5.758 6.936,-9.485 3.762,-12.296 0.01,-12.296 Z"
             style="fill:#ea4e78;fill-opacity:1;fill-rule:nonzero;stroke:none"
             id="path30" /></g><g
           id="g32"
           transform="translate(66.8643,44.8115)"><path
             d="m 0,0 c -5.728,0 -10.387,-4.66 -10.387,-10.389 0,-5.727 4.659,-10.387 10.387,-10.387 5.729,0 10.389,4.66 10.389,10.387 C 10.389,-4.66 5.729,0 0,0 m 0,-23.373 c -7.159,0 -12.984,5.825 -12.984,12.984 0,7.16 5.825,12.985 12.984,12.985 7.159,0 12.984,-5.825 12.984,-12.985 0,-7.159 -5.825,-12.984 -12.984,-12.984"
             style="fill:#ea4e78;fill-opacity:1;fill-rule:nonzero;stroke:none"
             id="path34" /></g><g
           id="g36"
           transform="translate(49.437,4.0693)"><path
             d="m 0,0 c -0.715,0 -1.298,0.582 -1.298,1.298 v 3.485 c 0,5.14 3.648,9.894 9.518,12.406 0.161,0.071 0.333,0.106 0.511,0.106 0.521,0 0.989,-0.31 1.193,-0.788 0.137,-0.319 0.141,-0.671 0.012,-0.992 C 9.808,15.192 9.562,14.94 9.243,14.804 4.342,12.705 1.298,8.866 1.298,4.783 V 1.298 C 1.298,0.582 0.716,0 0,0"
             style="fill:#ea4e78;fill-opacity:1;fill-rule:nonzero;stroke:none"
             id="path38" /></g><g
           id="g40"
           transform="translate(84.293,4.0693)"><path
             d="m 0,0 c -0.716,0 -1.299,0.582 -1.299,1.298 v 3.485 c 0,4.084 -3.045,7.924 -7.946,10.022 -0.318,0.135 -0.564,0.387 -0.693,0.711 -0.129,0.32 -0.125,0.672 0.011,0.993 0.205,0.477 0.674,0.787 1.194,0.787 0.174,0 0.346,-0.035 0.509,-0.106 C -2.351,14.678 1.298,9.923 1.298,4.783 V 1.298 C 1.298,0.582 0.716,0 0,0"
             style="fill:#ea4e78;fill-opacity:1;fill-rule:nonzero;stroke:none"
             id="path42" /></g><g
           id="g44"
           transform="translate(58.1689,4.0693)"><path
             d="m 0,0 c -0.716,0 -1.297,0.582 -1.297,1.298 v 3.5 c 0,0.716 0.581,1.299 1.297,1.299 0.716,0 1.299,-0.583 1.299,-1.299 v -3.5 C 1.299,0.582 0.716,0 0,0"
             style="fill:#ea4e78;fill-opacity:1;fill-rule:nonzero;stroke:none"
             id="path46" /></g><g
           id="g48"
           transform="translate(75.5605,4.0693)"><path
             d="m 0,0 c -0.716,0 -1.299,0.582 -1.299,1.298 v 3.5 c 0,0.716 0.583,1.299 1.299,1.299 0.716,0 1.298,-0.583 1.298,-1.299 v -3.5 C 1.298,0.582 0.716,0 0,0"
             style="fill:#ea4e78;fill-opacity:1;fill-rule:nonzero;stroke:none"
             id="path50" /></g><g
           id="g52"
           transform="translate(94.3252,35.9248)"><path
             d="m 0,0 c -4.393,0 -7.967,-3.574 -7.967,-7.967 0,-4.393 3.574,-7.968 7.967,-7.968 4.394,0 7.968,3.575 7.968,7.968 C 7.968,-3.574 4.394,0 0,0 m 0,-18.538 c -5.828,0 -10.57,4.742 -10.57,10.571 0,5.828 4.742,10.571 10.57,10.571 5.828,0 10.57,-4.743 10.57,-10.571 0,-5.829 -4.742,-10.571 -10.57,-10.571"
             style="fill:#ea4e78;fill-opacity:1;fill-rule:nonzero;stroke:none"
             id="path54" /></g><g
           id="g56"
           transform="translate(108.1484,3.6104)"><path
             d="m 0,0 c -0.718,0 -1.302,0.584 -1.302,1.302 v 2.764 c 0,3.128 -2.351,6.078 -6.137,7.699 -0.66,0.282 -0.967,1.048 -0.684,1.709 0.205,0.479 0.675,0.789 1.196,0.789 0.176,0 0.349,-0.036 0.513,-0.107 4.759,-2.037 7.715,-5.903 7.715,-10.09 V 1.302 C 1.301,0.584 0.717,0 0,0"
             style="fill:#ea4e78;fill-opacity:1;fill-rule:nonzero;stroke:none"
             id="path58" /></g><g
           id="g60"
           transform="translate(101.2217,3.6104)"><path
             d="m 0,0 c -0.717,0 -1.301,0.584 -1.301,1.302 v 2.776 c 0,0.718 0.584,1.302 1.301,1.302 0.718,0 1.302,-0.584 1.302,-1.302 V 1.302 C 1.302,0.584 0.718,0 0,0"
             style="fill:#ea4e78;fill-opacity:1;fill-rule:nonzero;stroke:none"
             id="path62" /></g><g
           id="g64"
           transform="translate(45.3818,16.4961)"><path
             d="m 0,0 c -0.396,0 -0.765,0.178 -1.013,0.487 l -2.429,3.156 c -0.549,0.713 -0.549,1.709 0.001,2.421 l 2.896,3.754 c -0.461,1.263 -0.814,2.575 -1.05,3.902 l -4.393,1.791 c -0.833,0.341 -1.334,1.201 -1.218,2.093 l 1.011,7.766 c 0.115,0.893 0.82,1.597 1.713,1.712 l 4.705,0.607 c 0.567,1.222 1.244,2.4 2.013,3.503 l -1.84,4.371 c -0.347,0.827 -0.094,1.789 0.616,2.338 l 6.21,4.78 c 0.344,0.265 0.775,0.412 1.21,0.412 0.437,0 0.867,-0.147 1.212,-0.413 l 3.753,-2.896 c 1.265,0.462 2.577,0.815 3.902,1.05 l 1.79,4.393 c 0.307,0.751 1.028,1.235 1.838,1.235 0.085,0 0.171,-0.005 0.256,-0.017 l 7.765,-1.01 c 0.893,-0.117 1.597,-0.821 1.713,-1.714 l 0.608,-4.704 c 1.219,-0.567 2.397,-1.244 3.502,-2.013 l 1.481,0.622 0.138,0.073 2.732,1.154 c 0.246,0.102 0.505,0.155 0.771,0.155 0.366,0 0.723,-0.101 1.036,-0.291 0.213,-0.127 0.4,-0.293 0.554,-0.493 l 2.202,-2.867 2.563,-3.324 c 0.55,-0.712 0.55,-1.708 0.001,-2.422 l -3.402,-4.412 h -0.005 c -0.247,-0.276 -0.595,-0.433 -0.969,-0.433 -0.716,0 -1.299,0.582 -1.299,1.297 0,0.294 0.102,0.583 0.284,0.811 l 3.05,3.947 -0.045,0.059 c -0.031,0.028 -0.077,0.082 -0.119,0.14 l -2.335,3.042 -1.701,2.206 -4.603,-1.937 c -0.159,-0.067 -0.328,-0.102 -0.501,-0.102 -0.278,0 -0.553,0.092 -0.776,0.258 -1.315,0.981 -2.749,1.805 -4.261,2.449 -0.421,0.178 -0.718,0.572 -0.777,1.027 l -0.641,4.961 -6.836,0.889 -1.887,-4.632 c -0.174,-0.423 -0.563,-0.727 -1.015,-0.794 -1.629,-0.236 -3.225,-0.665 -4.746,-1.277 -0.154,-0.062 -0.317,-0.093 -0.484,-0.093 -0.285,0 -0.566,0.095 -0.791,0.269 L 8.432,40.34 2.969,36.136 4.909,31.526 C 5.086,31.105 5.026,30.615 4.752,30.249 3.773,28.937 2.95,27.505 2.304,25.989 2.125,25.567 1.731,25.27 1.277,25.211 L -3.685,24.57 -4.574,17.735 0.059,15.847 C 0.482,15.674 0.786,15.285 0.852,14.832 1.087,13.206 1.517,11.609 2.129,10.086 2.3,9.662 2.232,9.174 1.953,8.812 L -1.101,4.853 1.017,2.105 C 1.212,1.842 1.299,1.577 1.299,1.299 1.299,0.583 0.716,0 0,0"
             style="fill:#ea4e78;fill-opacity:1;fill-rule:nonzero;stroke:none"
             id="path66" /></g><g
           id="g68"
           transform="translate(25.6724,1.9951)"><path
             d="M 0,0 C -0.078,0 -0.156,0.005 -0.234,0.015 -0.282,0.02 -0.333,0.028 -0.382,0.038 l -6.499,1.35 C -7.732,1.565 -8.358,2.296 -8.404,3.164 L -8.606,7.04 c -0.275,0.157 -0.549,0.322 -0.817,0.492 -0.677,0.419 -1.302,0.857 -1.856,1.3 l -3.652,-1.219 c -0.196,-0.065 -0.4,-0.098 -0.604,-0.098 -0.078,0 -0.157,0.005 -0.236,0.014 -0.561,0.069 -1.061,0.379 -1.371,0.852 l -3.63,5.543 c -0.476,0.727 -0.402,1.687 0.18,2.333 l 2.598,2.886 c -0.282,1.027 -0.483,2.083 -0.596,3.14 l -3.472,1.735 c -0.778,0.388 -1.197,1.254 -1.02,2.106 l 1.353,6.486 c 0.084,0.396 0.283,0.745 0.576,1.017 0.328,0.308 0.758,0.491 1.21,0.516 l 3.876,0.201 c 0.528,0.926 1.134,1.813 1.802,2.641 l -1.228,3.683 c -0.275,0.825 0.041,1.733 0.769,2.21 l 5.544,3.629 c 0.312,0.205 0.676,0.313 1.052,0.313 0.077,0 0.154,-0.005 0.231,-0.014 0.395,-0.049 0.757,-0.215 1.05,-0.479 l 2.884,-2.599 c 1.029,0.283 2.085,0.482 3.141,0.595 l 1.736,3.472 c 0.321,0.643 0.994,1.059 1.713,1.059 0.078,0 0.157,-0.004 0.235,-0.014 0.053,-0.006 0.106,-0.015 0.158,-0.027 L 9.506,47.46 c 0.855,-0.182 1.478,-0.911 1.522,-1.776 l 0.137,-2.604 c 0.046,-0.653 -0.389,-1.237 -1.033,-1.386 -0.099,-0.022 -0.199,-0.033 -0.3,-0.033 -0.053,0 -0.107,0.003 -0.16,0.01 -0.556,0.068 -1.013,0.481 -1.138,1.025 -0.012,0.051 -0.02,0.102 -0.026,0.158 L 8.7,42.979 8.5,42.968 8.393,44.965 3.042,46.081 1.233,42.462 C 1.022,42.041 0.6,41.76 0.129,41.728 c -1.364,-0.093 -2.72,-0.35 -4.028,-0.764 -0.13,-0.041 -0.265,-0.063 -0.4,-0.063 -0.055,0 -0.111,0.004 -0.167,0.011 -0.273,0.033 -0.526,0.149 -0.73,0.333 l -3.008,2.71 -4.572,-2.993 1.281,-3.841 c 0.149,-0.447 0.049,-0.945 -0.262,-1.301 -0.903,-1.034 -1.681,-2.174 -2.311,-3.386 -0.217,-0.419 -0.644,-0.694 -1.115,-0.718 l -4.043,-0.218 c 0,0 -1.105,-5.337 -1.11,-5.357 l 3.607,-1.802 c 0.421,-0.211 0.703,-0.634 0.735,-1.104 0.093,-1.363 0.35,-2.719 0.765,-4.029 0.142,-0.449 0.034,-0.946 -0.281,-1.296 l -2.71,-3.009 2.994,-4.572 3.211,1.072 c 0.072,0.04 0.178,0.08 0.287,0.107 l 0.354,0.112 c 0.132,0.044 0.273,0.067 0.417,0.067 0.055,0 0.108,-0.003 0.162,-0.01 0.265,-0.031 0.512,-0.142 0.715,-0.319 1.035,-0.904 2.175,-1.682 3.388,-2.312 C -6.275,8.829 -6,8.401 -5.975,7.931 l 0.21,-4.042 c 0,0 5.333,-1.109 5.351,-1.114 l 1.808,3.618 c 0.211,0.421 0.634,0.704 1.104,0.734 1.365,0.093 2.72,0.35 4.028,0.764 0.131,0.042 0.266,0.062 0.403,0.062 0.054,0 0.108,-0.003 0.162,-0.01 C 7.366,7.909 7.619,7.794 7.823,7.61 l 3.01,-2.713 2.853,1.803 c 0.038,0.029 0.087,0.061 0.14,0.088 0.185,0.101 0.398,0.154 0.613,0.154 0.717,0 1.299,-0.583 1.299,-1.298 0,-0.442 -0.221,-0.849 -0.592,-1.09 L 11.808,2.348 C 11.615,2.222 11.406,2.133 11.186,2.083 11.046,2.051 10.902,2.034 10.76,2.034 10.681,2.034 10.602,2.04 10.522,2.05 10.13,2.098 9.767,2.263 9.474,2.527 L 6.59,5.127 C 5.561,4.844 4.505,4.645 3.449,4.531 L 1.713,1.059 C 1.393,0.416 0.72,0 0,0"
             style="fill:#ea4e78;fill-opacity:1;fill-rule:nonzero;stroke:none"
             id="path70" /></g><g
           id="g72"
           transform="translate(12.6465,71.1567)"><path
             d="m 0,0 c 0.146,-0.056 0.297,-0.083 0.445,-0.083 0.501,0 0.974,0.305 1.164,0.801 2.625,6.853 7.763,12.275 14.465,15.264 6.703,2.99 14.169,3.19 21.023,0.565 v 0 c 0.642,-0.246 1.362,0.075 1.609,0.718 l 1.637,4.272 5.763,-7.107 -11.168,-1.777 c -0.679,-0.108 -1.142,-0.746 -1.034,-1.426 0.097,-0.613 0.627,-1.05 1.228,-1.05 0.065,0 0.132,0.005 0.198,0.016 l 13.298,2.115 c 0.439,0.07 0.809,0.369 0.968,0.785 0.159,0.415 0.085,0.885 -0.196,1.23 l -8.482,10.459 c -0.28,0.346 -0.723,0.515 -1.163,0.446 -0.439,-0.07 -0.808,-0.369 -0.967,-0.785 L 36.816,19.295 C 33.396,20.448 29.849,20.97 26.252,20.847 22.379,20.714 18.614,19.843 15.06,18.257 11.505,16.672 8.341,14.452 5.655,11.66 2.874,8.768 0.729,5.386 -0.718,1.609 -0.964,0.966 -0.643,0.246 0,0"
             style="fill:#ea4e78;fill-opacity:1;fill-rule:nonzero;stroke:none"
             id="path74" /></g><g
           id="g76"
           transform="translate(10.3423,57.1558)"><path
             d="m 0,0 c 0.102,-0.609 0.629,-1.042 1.228,-1.042 0.067,0 0.136,0.006 0.205,0.018 C 2.112,-0.912 2.57,-0.27 2.458,0.409 2.336,1.142 2.243,1.888 2.181,2.626 2.124,3.312 1.521,3.821 0.836,3.764 0.151,3.707 -0.358,3.104 -0.301,2.419 -0.234,1.614 -0.133,0.8 0,0"
             style="fill:#ea4e78;fill-opacity:1;fill-rule:nonzero;stroke:none"
             id="path78" /></g></g></g></g></svg>
