<?xml version="1.0" encoding="UTF-8" standalone="no"?>
<svg
   xmlns:dc="http://purl.org/dc/elements/1.1/"
   xmlns:cc="http://creativecommons.org/ns#"
   xmlns:rdf="http://www.w3.org/1999/02/22-rdf-syntax-ns#"
   xmlns:svg="http://www.w3.org/2000/svg"
   xmlns="http://www.w3.org/2000/svg"
   xmlns:sodipodi="http://sodipodi.sourceforge.net/DTD/sodipodi-0.dtd"
   xmlns:inkscape="http://www.inkscape.org/namespaces/inkscape"
   version="1.1"
   id="svg2"
   xml:space="preserve"
   width="137.53333"
   height="133.33333"
   viewBox="0 0 137.53333 133.33333"
   sodipodi:docname="Picto-Eco-Responsable.ai"><metadata
     id="metadata8"><rdf:RDF><cc:Work
         rdf:about=""><dc:format>image/svg+xml</dc:format><dc:type
           rdf:resource="http://purl.org/dc/dcmitype/StillImage" /></cc:Work></rdf:RDF></metadata><defs
     id="defs6"><clipPath
       clipPathUnits="userSpaceOnUse"
       id="clipPath18"><path
         d="M 0,100 H 103.15 V 0 H 0 Z"
         id="path16" /></clipPath></defs><sodipodi:namedview
     pagecolor="#ffffff"
     bordercolor="#666666"
     borderopacity="1"
     objecttolerance="10"
     gridtolerance="10"
     guidetolerance="10"
     inkscape:pageopacity="0"
     inkscape:pageshadow="2"
     inkscape:window-width="640"
     inkscape:window-height="480"
     id="namedview4" /><g
     id="g10"
     inkscape:groupmode="layer"
     inkscape:label="Picto-Eco-Responsable"
     transform="matrix(1.3333333,0,0,-1.3333333,0,133.33333)"><g
       id="g12"><g
         id="g14"
         clip-path="url(#clipPath18)"><g
           id="g20"
           transform="translate(86.0048,34.375)"><path
             d="m 0,0 c -0.471,-0.591 -1.088,-1.263 -1.923,-1.866 -0.582,-0.421 -0.757,-1.033 -0.8,-1.472 -0.026,-0.256 -0.011,-0.478 0.014,-0.65 0.226,0.16 0.582,0.462 1.016,0.995 C -1.011,-2.154 -0.405,-1.08 0,0 m -3.062,-6.626 c -0.277,0 -0.542,0.053 -0.788,0.156 -0.979,0.414 -1.23,1.736 -1.293,2.284 -0.197,1.737 0.472,3.342 1.79,4.296 0.946,0.684 1.533,1.503 2.003,2.161 0.498,0.7 0.927,1.3 1.67,1.457 0.115,0.024 0.231,0.036 0.347,0.036 0.508,0 1.011,-0.237 1.379,-0.649 C 2.762,2.313 2.908,0.991 2.438,-0.419 2.01,-1.704 1.337,-3.007 0.543,-4.087 -0.033,-4.871 -0.938,-5.904 -1.98,-6.375 -2.349,-6.541 -2.712,-6.626 -3.062,-6.626"
             style="fill:#ea4e78;fill-opacity:1;fill-rule:nonzero;stroke:none"
             id="path22" /></g><g
           id="g24"
           transform="translate(83.0829,31.0576)"><path
             d="M 0,0 C 0.048,0.479 0.239,1.148 0.882,1.614 2.116,2.507 2.879,3.568 3.385,4.276 3.367,4.092 3.323,3.869 3.236,3.606 2.83,2.388 2.154,1.146 1.384,0.198 0.822,-0.492 0.352,-0.849 0.076,-0.992 0.013,-0.764 -0.042,-0.412 0,0 m -0.85,-2.968 c 0.18,-0.076 0.418,-0.14 0.71,-0.14 0.285,0 0.619,0.061 0.999,0.233 1.003,0.453 1.883,1.46 2.445,2.224 C 4.086,0.414 4.749,1.697 5.171,2.962 5.617,4.303 5.485,5.551 4.817,6.3 4.407,6.76 3.834,6.966 3.284,6.85 2.618,6.71 2.229,6.166 1.737,5.478 1.258,4.806 0.66,3.971 -0.313,3.266 -1.572,2.354 -2.212,0.817 -2.022,-0.846 c 0.058,-0.513 0.29,-1.749 1.172,-2.122"
             style="fill:#ea4e78;fill-opacity:1;fill-rule:nonzero;stroke:none"
             id="path26" /></g><g
           id="g28"
           transform="translate(55.5975,50.8838)"><path
             d="m 0,0 c 1.879,-0.014 3.586,-0.617 5.072,-1.794 1.279,-1.013 2.364,-2.456 3.138,-4.173 1.235,-2.736 1.478,-5.554 1.712,-8.28 0.101,-1.183 0.206,-2.406 0.394,-3.601 0.414,-2.626 1.112,-4.268 2.073,-4.884 0.298,-0.19 0.63,-0.283 1.016,-0.283 0.268,0 0.567,0.047 0.888,0.138 1.281,0.364 2.142,1.018 2.789,2.121 0.195,0.332 0.374,0.677 0.563,1.043 0.406,0.789 0.827,1.605 1.448,2.347 0.553,0.66 1.185,1.169 1.796,1.66 0.379,0.306 0.723,0.584 1.037,0.884 0.727,0.695 1.04,1.432 1.152,2.718 0.029,0.341 0.03,0.717 0.031,1.115 0.003,1.033 0.006,2.203 0.507,3.271 0.737,1.57 2.176,3.092 3.569,4.564 1.034,1.092 2.008,2.123 2.524,2.996 0.485,0.82 0.299,1.007 0.187,1.118 -0.078,0.078 -0.198,0.127 -0.555,0.127 -0.179,0 -0.398,-0.012 -0.671,-0.028 -0.315,-0.021 -0.658,-0.042 -1.029,-0.042 -0.804,0 -1.507,0.101 -2.216,0.32 -1.68,0.517 -3.058,1.765 -3.987,3.607 -0.699,1.388 -1.092,3.042 -1.05,4.426 0.056,1.873 0.936,2.365 1.457,2.492 0.158,0.039 0.319,0.059 0.476,0.059 0.606,0 1.152,-0.277 1.623,-0.822 0.348,-0.404 0.631,-0.926 0.931,-1.479 0.721,-1.328 1.535,-2.829 3.341,-2.969 0.15,-0.011 0.297,-0.016 0.439,-0.016 1.337,0 2.299,0.462 2.936,0.767 0.706,0.34 0.839,0.609 0.862,0.683 0.094,0.293 -0.251,0.925 -0.503,1.387 -0.243,0.444 -0.472,0.864 -0.582,1.326 -0.193,0.821 0.072,1.558 0.73,2.022 0.533,0.333 1.033,0.48 1.549,0.48 0.291,0 0.585,-0.048 0.874,-0.142 0.615,-0.201 1.215,-0.61 1.838,-1.252 0.99,-1.021 1.958,-2.554 2.985,-4.177 1.101,-1.742 2.333,-3.691 3.679,-5.117 -1.662,13.953 -11.895,25.421 -25.627,28.639 -0.406,0.05 -0.809,0.077 -1.18,0.077 -2.512,0 -3.584,-1.222 -5.07,-2.912 C 10.332,27.489 9.409,26.438 8.147,25.562 7.055,24.805 5.718,24.331 4.425,23.874 3.502,23.548 2.63,23.239 2.019,22.878 1.67,22.672 1.07,22.199 0.576,21.646 0.366,21.412 0.225,21.218 0.13,21.065 c 0.066,0.02 0.14,0.042 0.221,0.069 0.501,0.166 1.108,0.427 1.695,0.678 1.223,0.525 2.487,1.066 3.64,1.213 0.196,0.026 0.393,0.037 0.59,0.037 1.38,0 2.755,-0.572 4.212,-1.177 1.471,-0.613 2.991,-1.244 4.487,-1.244 0.113,0 0.226,0.004 0.338,0.01 0.173,0.012 0.344,0.018 0.514,0.018 1.358,0 2.639,-0.367 3.704,-1.061 1.037,-0.676 1.838,-1.631 2.255,-2.689 0.543,-1.378 0.323,-2.689 -0.572,-3.42 -0.558,-0.455 -1.193,-0.686 -1.89,-0.686 -0.13,0 -0.262,0.008 -0.395,0.025 -0.636,0.076 -1.225,0.318 -1.794,0.554 -0.634,0.261 -1.234,0.508 -1.841,0.508 -0.213,0 -0.414,-0.029 -0.615,-0.091 l -0.099,-0.03 c -0.861,-0.266 -2.166,-0.669 -3.407,-0.669 -1.168,0 -2.064,0.361 -2.661,1.073 -0.714,0.847 -0.821,1.551 -0.899,2.066 -0.052,0.343 -0.069,0.457 -0.255,0.672 -0.021,0.009 -0.255,0.092 -0.751,0.092 -0.583,0 -1.308,-0.111 -2.155,-0.327 -1.789,-0.46 -3.792,-1.328 -5.358,-2.323 -3.034,-1.858 -5.109,-4.345 -6.017,-7.204 -0.811,-2.551 -0.482,-6.8 2.234,-7.808 0.179,-0.067 0.376,-0.1 0.602,-0.1 0.489,0 1.036,0.15 1.669,0.324 C -1.661,-0.215 -0.885,0 -0.029,0 Z m 9.748,-37.33 c -4.119,0 -8.158,0.691 -12.004,2.054 -3.719,1.317 -7.179,3.231 -10.286,5.688 -3.076,2.436 -5.72,5.334 -7.858,8.617 -2.165,3.326 -3.752,6.958 -4.717,10.795 -0.035,0.108 -0.386,1.191 -1.157,2.644 -0.745,1.403 -2.044,3.454 -4.011,5.253 -2.154,1.968 -4.428,3.161 -7.156,3.752 -0.658,0.142 -1.077,0.793 -0.934,1.45 0.121,0.557 0.622,0.962 1.191,0.962 0.087,0 0.174,-0.01 0.259,-0.029 1.688,-0.365 3.279,-0.957 4.73,-1.757 0.201,-0.111 0.401,-0.227 0.598,-0.346 -0.536,2.498 -1.916,4.309 -4.107,5.389 -1.351,0.666 -2.911,1.003 -4.638,1.003 -3.001,0 -6.247,-1.032 -9.168,-2.909 0.915,-0.69 1.846,-1.518 2.827,-2.391 1.707,-1.518 3.641,-3.238 5.733,-4.418 1.172,-0.661 2.538,-1.011 3.951,-1.011 0.68,0 1.358,0.082 2.016,0.243 0.095,0.024 0.193,0.035 0.291,0.035 0.563,0 1.049,-0.382 1.184,-0.929 0.078,-0.317 0.028,-0.645 -0.141,-0.923 -0.169,-0.279 -0.436,-0.475 -0.753,-0.552 -0.855,-0.21 -1.732,-0.317 -2.603,-0.317 -0.496,0 -0.996,0.035 -1.485,0.102 -1.307,0.183 -2.538,0.596 -3.659,1.229 -2.321,1.309 -4.357,3.121 -6.154,4.718 -1.437,1.278 -2.793,2.484 -3.95,3.109 -0.365,0.197 -0.603,0.561 -0.636,0.975 -0.033,0.413 0.143,0.811 0.472,1.064 2.784,2.141 5.945,3.571 9.143,4.138 0.993,0.175 1.981,0.264 2.937,0.264 0.541,0 1.081,-0.028 1.603,-0.085 1.491,-0.161 2.873,-0.549 4.108,-1.157 3.547,-1.747 5.572,-5.14 5.708,-9.559 0.093,-0.083 0.187,-0.167 0.28,-0.251 0.888,-0.812 1.721,-1.725 2.482,-2.721 -0.031,0.609 -0.046,1.219 -0.046,1.821 0,0.607 0.015,1.221 0.046,1.824 0.127,2.553 0.527,5.091 1.187,7.544 0.644,2.394 1.542,4.728 2.67,6.938 0.209,0.411 0.625,0.666 1.087,0.666 0.191,0 0.382,-0.046 0.553,-0.134 0.599,-0.305 0.838,-1.041 0.533,-1.64 -1.315,-2.579 -2.286,-5.306 -2.889,-8.113 2.994,0.863 5.211,2.929 6.425,5.992 1.918,4.841 0.86,11.013 -2.758,16.172 -0.797,-1.17 -1.796,-2.374 -2.85,-3.645 -1.717,-2.072 -3.663,-4.419 -4.975,-6.943 -1.114,-2.142 -1.361,-4.762 -0.676,-7.187 0.088,-0.314 0.05,-0.644 -0.109,-0.928 -0.16,-0.284 -0.42,-0.489 -0.733,-0.577 -0.109,-0.031 -0.221,-0.046 -0.332,-0.046 -0.543,0 -1.026,0.365 -1.173,0.888 -0.437,1.548 -0.575,3.132 -0.41,4.708 0.157,1.514 0.584,2.95 1.269,4.267 1.432,2.756 3.467,5.21 5.262,7.375 1.453,1.752 2.818,3.399 3.513,4.801 0.185,0.371 0.541,0.621 0.953,0.669 0.047,0.006 0.093,0.009 0.139,0.009 0.365,0 0.708,-0.162 0.941,-0.445 2.519,-3.049 4.226,-6.581 4.937,-10.211 0.683,-3.484 0.43,-6.875 -0.731,-9.805 -0.846,-2.136 -2.121,-3.902 -3.788,-5.249 -1.535,-1.24 -3.336,-2.068 -5.357,-2.46 -0.121,-0.914 -0.206,-1.845 -0.252,-2.767 -0.029,-0.564 -0.043,-1.136 -0.043,-1.703 0,-1.217 0.066,-2.443 0.196,-3.645 0.165,-1.518 0.434,-3.035 0.802,-4.508 1.528,-6.11 4.709,-11.617 9.218,-15.969 -0.291,1.535 -0.437,3.103 -0.578,4.625 -0.415,4.477 -0.806,8.697 -4.52,12.039 -0.242,0.218 -0.385,0.517 -0.402,0.842 -0.017,0.326 0.093,0.638 0.312,0.88 0.231,0.257 0.561,0.404 0.907,0.404 0.301,0 0.591,-0.111 0.815,-0.313 1.992,-1.793 3.359,-3.964 4.177,-6.634 0.706,-2.303 0.926,-4.685 1.139,-6.987 0.258,-2.783 0.502,-5.412 1.548,-7.725 5.794,-4.266 12.672,-6.52 19.897,-6.52 18.479,0 33.511,15.034 33.511,33.511 0,0.199 -0.002,0.399 -0.005,0.597 -2.424,1.597 -4.306,4.574 -5.968,7.204 -0.965,1.525 -1.867,2.95 -2.679,3.786 -0.217,0.226 -0.395,0.376 -0.539,0.475 0.005,-0.009 0.01,-0.018 0.014,-0.027 C 34.555,9.792 35.19,8.629 34.775,7.338 34.49,6.454 33.795,5.756 32.648,5.204 31.916,4.852 30.552,4.196 28.668,4.196 c -0.207,0 -0.42,0.008 -0.639,0.025 -1.385,0.105 -2.586,0.673 -3.568,1.687 -0.668,0.689 -1.145,1.485 -1.529,2.182 0.082,-0.448 0.223,-0.987 0.467,-1.574 0.358,-0.858 1.189,-2.369 2.745,-2.848 0.468,-0.145 0.945,-0.212 1.5,-0.212 0.298,0 0.588,0.019 0.874,0.036 0.256,0.017 0.522,0.033 0.79,0.033 0.685,0 1.568,-0.095 2.314,-0.84 0.745,-0.746 1.384,-2.06 0.188,-4.084 -0.655,-1.107 -1.719,-2.232 -2.845,-3.422 -1.267,-1.34 -2.569,-2.717 -3.14,-3.932 -0.272,-0.58 -0.274,-1.388 -0.276,-2.243 -0.001,-0.434 -0.003,-0.883 -0.041,-1.32 -0.116,-1.325 -0.432,-2.868 -1.896,-4.269 -0.383,-0.365 -0.785,-0.691 -1.175,-1.007 -0.562,-0.452 -1.076,-0.865 -1.474,-1.34 -0.445,-0.532 -0.786,-1.191 -1.147,-1.889 -0.201,-0.391 -0.404,-0.783 -0.63,-1.17 -0.964,-1.641 -2.346,-2.698 -4.226,-3.233 -0.54,-0.153 -1.066,-0.231 -1.564,-0.231 -0.846,0 -1.626,0.225 -2.321,0.668 -2.128,1.36 -2.827,4.395 -3.168,6.559 -0.2,1.273 -0.309,2.54 -0.415,3.766 -0.227,2.643 -0.441,5.133 -1.505,7.492 -0.758,1.683 -2.547,4.508 -6.003,4.531 -0.534,0 -1.122,-0.162 -1.744,-0.333 -0.708,-0.196 -1.506,-0.416 -2.335,-0.416 -0.515,0 -0.988,0.083 -1.445,0.252 -1.054,0.392 -1.938,1.066 -2.629,2.001 -0.589,0.799 -1.022,1.769 -1.286,2.883 -0.451,1.899 -0.373,4.123 0.207,5.95 0.554,1.741 1.463,3.372 2.704,4.845 1.179,1.403 2.639,2.643 4.34,3.686 1.802,1.142 4.102,2.132 6.15,2.644 1.013,0.253 1.908,0.382 2.661,0.382 1.185,0 2.058,-0.316 2.596,-0.939 0.648,-0.748 0.748,-1.413 0.821,-1.899 0.054,-0.36 0.081,-0.541 0.354,-0.864 0.051,-0.062 0.231,-0.203 0.796,-0.203 0.13,0 0.271,0.008 0.423,0.023 0.786,0.08 1.64,0.344 2.263,0.536 l 0.102,0.032 c 0.437,0.134 0.888,0.202 1.337,0.202 1.074,0 2.012,-0.386 2.765,-0.697 0.619,-0.253 1.001,-0.392 1.255,-0.392 0.135,0 0.234,0.038 0.352,0.135 -0.022,0.003 0.011,0.313 -0.232,0.812 -0.455,0.936 -1.672,2.029 -3.61,2.029 -0.115,0 -0.233,-0.003 -0.354,-0.011 -0.168,-0.012 -0.335,-0.017 -0.502,-0.017 -1.983,0 -3.809,0.76 -5.42,1.431 -1.224,0.509 -2.379,0.989 -3.282,0.989 -0.094,0 -0.187,-0.005 -0.276,-0.017 C 5.178,20.501 4.074,20.027 3.007,19.57 2.169,19.212 1.407,18.887 0.72,18.698 c -0.2,-0.055 -0.618,-0.17 -1.091,-0.17 -0.592,0 -1.081,0.177 -1.452,0.528 -0.51,0.479 -0.746,1.136 -0.667,1.849 0.087,0.779 0.551,1.623 1.378,2.51 0.573,0.613 1.296,1.212 1.888,1.562 0.807,0.478 1.782,0.823 2.813,1.189 1.165,0.412 2.345,0.829 3.167,1.4 1.014,0.703 1.795,1.592 2.552,2.453 0.629,0.716 1.271,1.448 2.044,2.074 -0.538,0.025 -1.075,0.038 -1.604,0.038 -5.932,0 -11.761,-1.57 -16.856,-4.541 -0.186,-0.11 -0.399,-0.167 -0.614,-0.167 -0.432,0 -0.836,0.232 -1.054,0.606 -0.164,0.282 -0.208,0.61 -0.125,0.925 0.083,0.315 0.283,0.578 0.565,0.742 2.687,1.569 5.568,2.78 8.564,3.6 3.087,0.846 6.291,1.274 9.52,1.274 4.853,0 9.562,-0.951 13.994,-2.825 4.279,-1.81 8.124,-4.402 11.427,-7.704 3.301,-3.302 5.894,-7.146 7.704,-11.427 1.875,-4.433 2.825,-9.141 2.825,-13.994 0,-4.852 -0.95,-9.56 -2.825,-13.994 -1.81,-4.28 -4.403,-8.125 -7.704,-11.427 -3.301,-3.301 -7.146,-5.892 -11.427,-7.704 -4.432,-1.874 -9.141,-2.825 -13.994,-2.825"
             style="fill:#ea4e78;fill-opacity:1;fill-rule:nonzero;stroke:none"
             id="path30" /></g></g></g></g></svg>
