<?xml version="1.0" encoding="UTF-8" standalone="no"?>
<svg
   xmlns:dc="http://purl.org/dc/elements/1.1/"
   xmlns:cc="http://creativecommons.org/ns#"
   xmlns:rdf="http://www.w3.org/1999/02/22-rdf-syntax-ns#"
   xmlns:svg="http://www.w3.org/2000/svg"
   xmlns="http://www.w3.org/2000/svg"
   xmlns:sodipodi="http://sodipodi.sourceforge.net/DTD/sodipodi-0.dtd"
   xmlns:inkscape="http://www.inkscape.org/namespaces/inkscape"
   version="1.1"
   id="svg2"
   xml:space="preserve"
   width="149.33333"
   height="133.33333"
   viewBox="0 0 149.33333 133.33333"
   sodipodi:docname="Picto-Logistique-&amp;-Transport.ai"><metadata
     id="metadata8"><rdf:RDF><cc:Work
         rdf:about=""><dc:format>image/svg+xml</dc:format><dc:type
           rdf:resource="http://purl.org/dc/dcmitype/StillImage" /></cc:Work></rdf:RDF></metadata><defs
     id="defs6"><clipPath
       clipPathUnits="userSpaceOnUse"
       id="clipPath18"><path
         d="M 0,100 H 112 V 0 H 0 Z"
         id="path16" /></clipPath></defs><sodipodi:namedview
     pagecolor="#ffffff"
     bordercolor="#666666"
     borderopacity="1"
     objecttolerance="10"
     gridtolerance="10"
     guidetolerance="10"
     inkscape:pageopacity="0"
     inkscape:pageshadow="2"
     inkscape:window-width="640"
     inkscape:window-height="480"
     id="namedview4" /><g
     id="g10"
     inkscape:groupmode="layer"
     inkscape:label="Picto-Logistique-&amp;-Transport"
     transform="matrix(1.3333333,0,0,-1.3333333,0,133.33333)"><g
       id="g12"><g
         id="g14"
         clip-path="url(#clipPath18)"><g
           id="g20"
           transform="translate(43.0142,24.9385)"><path
             d="m 0,0 c -3.203,0 -5.811,-2.605 -5.813,-5.808 0,-3.208 2.608,-5.817 5.813,-5.817 3.205,0 5.813,2.607 5.813,5.813 C 5.813,-2.607 3.205,0 0,0 m 43.41,0 c -3.206,0 -5.814,-2.607 -5.814,-5.812 0,-3.206 2.608,-5.813 5.814,-5.813 3.205,0 5.812,2.607 5.812,5.813 C 49.222,-2.607 46.615,0 43.41,0 m 0,-14.085 c -4.021,0 -7.533,2.992 -8.168,6.959 l -0.014,0.084 H 8.181 L 8.167,-7.126 C 7.532,-11.093 4.021,-14.085 0,-14.085 c -4.021,0 -7.532,2.992 -8.167,6.959 l -0.014,0.084 h -5.811 c -2.645,0.003 -4.797,2.157 -4.797,4.803 v 18.448 c 0,0.679 0.552,1.23 1.23,1.23 0.678,0 1.229,-0.551 1.229,-1.23 V -2.239 c 0,-0.625 0.244,-1.213 0.687,-1.657 0.443,-0.443 1.029,-0.687 1.651,-0.687 h 5.811 l 0.014,0.084 C -7.532,-0.532 -4.021,2.46 0,2.46 c 4.021,0 7.532,-2.992 8.167,-6.959 l 0.014,-0.084 h 27.047 l 0.014,0.084 c 0.635,3.967 4.147,6.959 8.168,6.959 4.02,0 7.531,-2.992 8.167,-6.959 l 0.013,-0.084 h 5.447 c 1.293,0 2.344,1.051 2.344,2.344 v 5.587 h -2.09 c -0.678,0 -1.23,0.551 -1.23,1.229 0,0.679 0.552,1.231 1.23,1.231 H 59.25 L 59.223,5.93 C 58.766,7.942 57.5,8.868 57.357,8.967 l -3.905,2.617 c -0.184,0.124 -0.33,0.293 -0.425,0.49 l -4.248,8.87 c -0.082,0.158 -0.494,0.907 -1.321,1.683 -1.169,1.096 -2.603,1.744 -4.262,1.927 L 32.875,24.555 V 2.968 c 0,-0.678 -0.552,-1.23 -1.23,-1.23 -0.679,0 -1.23,0.552 -1.23,1.23 V 8.742 L 4.755,8.756 c -0.677,10e-4 -1.229,0.553 -1.228,1.23 0,0.678 0.552,1.23 1.23,1.23 l 25.658,-0.015 v 21.284 c 0,1.293 -1.052,2.344 -2.345,2.344 L 0.665,34.653 c -0.679,0 -1.231,0.552 -1.231,1.231 0,0.678 0.552,1.229 1.231,1.229 l 27.406,0.175 c 2.648,0 4.804,-2.154 4.804,-4.803 v -5.47 h 10.37 c 0.041,0 0.083,-0.003 0.125,-0.007 5.437,-0.551 7.547,-4.834 7.634,-5.016 l 4.084,-8.527 3.642,-2.457 c 0.127,-0.086 3.11,-2.148 3.11,-6.535 v -6.712 c 0,-2.645 -2.154,-4.799 -4.802,-4.803 H 51.59 l -0.013,-0.084 c -0.636,-3.967 -4.147,-6.959 -8.167,-6.959"
             style="fill:#ea4e78;fill-opacity:1;fill-rule:nonzero;stroke:none"
             id="path22" /></g><g
           id="g24"
           transform="translate(86.4238,33.6797)"><path
             d="m 0,0 c -2.648,0 -4.804,2.154 -4.804,4.803 v 3.465 c 0,2.648 2.156,4.802 4.804,4.802 0.678,0 1.229,-0.551 1.229,-1.229 0,-0.678 -0.551,-1.23 -1.229,-1.23 -1.293,0 -2.344,-1.05 -2.344,-2.343 V 4.803 C -2.344,3.51 -1.293,2.459 0,2.459 h 6.221 c 0.678,0 1.23,-0.552 1.23,-1.23 C 7.451,0.552 6.899,0 6.221,0 Z"
             style="fill:#ea4e78;fill-opacity:1;fill-rule:nonzero;stroke:none"
             id="path26" /></g><g
           id="g28"
           transform="translate(103.2334,47.4092)"><path
             d="M 0,0 C -0.278,0 -0.542,0.092 -0.763,0.266 -1.02,0.47 -1.182,0.762 -1.22,1.088 c -0.038,0.327 0.053,0.647 0.256,0.904 2.889,3.651 4.415,8.045 4.415,12.709 0,11.301 -9.194,20.495 -20.495,20.495 -8.633,0 -16.389,-5.457 -19.299,-13.578 -0.111,-0.308 -0.336,-0.556 -0.634,-0.697 -0.166,-0.079 -0.341,-0.118 -0.522,-0.118 -0.142,0 -0.281,0.024 -0.416,0.072 -0.311,0.111 -0.558,0.336 -0.697,0.633 -0.141,0.297 -0.157,0.631 -0.046,0.939 0.787,2.196 1.903,4.254 3.318,6.117 1.4,1.846 3.064,3.464 4.945,4.812 3.91,2.8 8.526,4.28 13.351,4.28 3.097,0 6.104,-0.607 8.935,-1.804 2.733,-1.157 5.188,-2.811 7.297,-4.919 C 1.294,28.825 2.949,26.371 4.105,23.637 5.303,20.807 5.91,17.8 5.91,14.701 5.91,12.072 5.469,9.493 4.598,7.035 3.757,4.66 2.534,2.45 0.965,0.468 0.73,0.171 0.379,0 0,0"
             style="fill:#ea4e78;fill-opacity:1;fill-rule:nonzero;stroke:none"
             id="path30" /></g><g
           id="g32"
           transform="translate(86.207,63.4971)"><path
             d="m 0,0 c -0.765,0 -1.386,-0.622 -1.386,-1.387 0,-0.764 0.621,-1.385 1.386,-1.385 0.765,0 1.387,0.621 1.387,1.385 C 1.387,-0.622 0.765,0 0,0 m 0,-5.232 c -2.12,0 -3.846,1.725 -3.846,3.845 0,1.618 1.026,3.074 2.551,3.621 l 0.066,0.024 v 10.801 c 0,0.677 0.551,1.229 1.229,1.229 0.678,0 1.229,-0.552 1.229,-1.229 V 2.258 L 1.295,2.234 C 2.383,1.844 3.23,0.996 3.621,-0.092 l 0.024,-0.065 h 9.129 c 0.678,0 1.23,-0.552 1.23,-1.23 0,-0.677 -0.552,-1.229 -1.23,-1.229 H 3.645 L 3.621,-2.682 C 3.073,-4.207 1.618,-5.232 0,-5.232"
             style="fill:#ea4e78;fill-opacity:1;fill-rule:nonzero;stroke:none"
             id="path34" /></g><g
           id="g36"
           transform="translate(43.0142,17.0029)"><path
             d="m 0,0 c -1.171,0 -2.123,0.952 -2.123,2.123 0,1.171 0.952,2.123 2.123,2.123 1.17,0 2.123,-0.952 2.123,-2.123 C 2.123,0.952 1.17,0 0,0"
             style="fill:#ea4e78;fill-opacity:1;fill-rule:nonzero;stroke:none"
             id="path38" /></g><g
           id="g40"
           transform="translate(86.4229,17.0029)"><path
             d="m 0,0 c -1.171,0 -2.123,0.952 -2.123,2.123 0,1.171 0.952,2.123 2.123,2.123 1.171,0 2.124,-0.952 2.124,-2.123 C 2.124,0.952 1.171,0 0,0"
             style="fill:#ea4e78;fill-opacity:1;fill-rule:nonzero;stroke:none"
             id="path42" /></g><g
           id="g44"
           transform="translate(25.7373,84.2373)"><path
             d="m 0,0 c -6.436,0 -11.672,-5.235 -11.672,-11.672 0,-4.424 2.145,-9.932 6.203,-15.927 2.108,-3.112 4.253,-5.635 5.344,-6.862 l 0.078,-0.088 0.074,0.092 c 1.5,1.858 4.395,5.613 6.927,9.872 3.131,5.265 4.719,9.609 4.719,12.913 C 11.673,-5.235 6.437,0 0,0 m 0.001,-37.521 c -0.318,0 -0.626,0.13 -0.847,0.358 -0.134,0.138 -3.307,3.42 -6.555,8.213 -1.909,2.815 -3.432,5.556 -4.528,8.147 -1.395,3.296 -2.101,6.368 -2.101,9.131 0,3.748 1.459,7.272 4.109,9.922 2.65,2.649 6.173,4.109 9.921,4.109 3.748,0 7.271,-1.46 9.921,-4.109 2.65,-2.65 4.11,-6.174 4.11,-9.922 0,-4.276 -2.226,-9.873 -6.616,-16.635 -3.282,-5.054 -6.489,-8.767 -6.521,-8.804 -0.216,-0.25 -0.528,-0.4 -0.858,-0.41 z"
             style="fill:#ea4e78;fill-opacity:1;fill-rule:nonzero;stroke:none"
             id="path46" /></g><g
           id="g48"
           transform="translate(25.7397,64.002)"><path
             d="m 0,0 c -4.72,0 -8.56,3.84 -8.56,8.56 0,4.719 3.84,8.56 8.56,8.56 0.65,0 1.179,-0.529 1.179,-1.18 0,-0.65 -0.529,-1.179 -1.179,-1.179 -3.419,0 -6.201,-2.782 -6.201,-6.201 0,-3.42 2.782,-6.202 6.201,-6.202 3.419,0 6.202,2.782 6.202,6.202 0,1.719 -0.724,3.378 -1.988,4.549 -0.23,0.214 -0.364,0.505 -0.376,0.821 -0.012,0.314 0.099,0.615 0.313,0.845 0.214,0.232 0.505,0.366 0.82,0.377 h 0.004 c 0.342,0 0.625,-0.111 0.842,-0.313 C 7.56,13.224 8.56,10.936 8.56,8.56 8.56,3.84 4.72,0 0,0"
             style="fill:#ea4e78;fill-opacity:1;fill-rule:nonzero;stroke:none"
             id="path50" /></g><g
           id="g52"
           transform="translate(3.6831,32.7139)"><path
             d="m 0,0 c -0.6,0 -1.087,0.488 -1.087,1.088 0,0.599 0.487,1.087 1.087,1.087 h 9.577 c 0.6,0 1.088,-0.488 1.088,-1.087 C 10.665,0.488 10.177,0 9.577,0 Z"
             style="fill:#ea4e78;fill-opacity:1;fill-rule:nonzero;stroke:none"
             id="path54" /></g><g
           id="g56"
           transform="translate(19.1973,32.7139)"><path
             d="m 0,0 c -0.6,0 -1.088,0.488 -1.088,1.088 0,0.599 0.488,1.087 1.088,1.087 h 0.631 c 0.6,0 1.088,-0.488 1.088,-1.087 C 1.719,0.488 1.231,0 0.631,0 Z"
             style="fill:#ea4e78;fill-opacity:1;fill-rule:nonzero;stroke:none"
             id="path58" /></g><g
           id="g60"
           transform="translate(15.2817,24.5166)"><path
             d="m 0,0 c -0.6,0 -1.088,0.488 -1.088,1.088 0,0.599 0.488,1.088 1.088,1.088 h 4.547 c 0.6,0 1.088,-0.489 1.088,-1.088 C 5.635,0.488 5.147,0 4.547,0 Z"
             style="fill:#ea4e78;fill-opacity:1;fill-rule:nonzero;stroke:none"
             id="path62" /></g><g
           id="g64"
           transform="translate(11.3623,24.5166)"><path
             d="M 0,0 C -0.6,0 -1.087,0.488 -1.087,1.088 -1.087,1.687 -0.6,2.176 0,2.176 H 0.632 C 1.231,2.176 1.72,1.687 1.72,1.088 1.72,0.488 1.231,0 0.632,0 Z"
             style="fill:#ea4e78;fill-opacity:1;fill-rule:nonzero;stroke:none"
             id="path66" /></g><g
           id="g68"
           transform="translate(17.5552,40.1943)"><path
             d="m 0,0 c -0.6,0 -1.088,0.488 -1.088,1.088 0,0.599 0.488,1.088 1.088,1.088 h 2.273 c 0.6,0 1.088,-0.489 1.088,-1.088 C 3.361,0.488 2.873,0 2.273,0 Z"
             style="fill:#ea4e78;fill-opacity:1;fill-rule:nonzero;stroke:none"
             id="path70" /></g><g
           id="g72"
           transform="translate(12.3765,40.1943)"><path
             d="m 0,0 c -0.6,0 -1.088,0.488 -1.088,1.088 0,0.599 0.488,1.088 1.088,1.088 h 0.631 c 0.6,0 1.088,-0.489 1.088,-1.088 C 1.719,0.488 1.231,0 0.631,0 Z"
             style="fill:#ea4e78;fill-opacity:1;fill-rule:nonzero;stroke:none"
             id="path74" /></g></g></g></g></svg>
