<?xml version="1.0" encoding="UTF-8" standalone="no"?>
<svg
   xmlns:dc="http://purl.org/dc/elements/1.1/"
   xmlns:cc="http://creativecommons.org/ns#"
   xmlns:rdf="http://www.w3.org/1999/02/22-rdf-syntax-ns#"
   xmlns:svg="http://www.w3.org/2000/svg"
   xmlns="http://www.w3.org/2000/svg"
   xmlns:sodipodi="http://sodipodi.sourceforge.net/DTD/sodipodi-0.dtd"
   xmlns:inkscape="http://www.inkscape.org/namespaces/inkscape"
   version="1.1"
   id="svg2"
   xml:space="preserve"
   width="137.53333"
   height="133.33333"
   viewBox="0 0 137.53333 133.33333"
   sodipodi:docname="Picto-Design-PAO.ai"><metadata
     id="metadata8"><rdf:RDF><cc:Work
         rdf:about=""><dc:format>image/svg+xml</dc:format><dc:type
           rdf:resource="http://purl.org/dc/dcmitype/StillImage" /></cc:Work></rdf:RDF></metadata><defs
     id="defs6"><clipPath
       clipPathUnits="userSpaceOnUse"
       id="clipPath18"><path
         d="M 0,100 H 103.15 V 0 H 0 Z"
         id="path16" /></clipPath></defs><sodipodi:namedview
     pagecolor="#ffffff"
     bordercolor="#666666"
     borderopacity="1"
     objecttolerance="10"
     gridtolerance="10"
     guidetolerance="10"
     inkscape:pageopacity="0"
     inkscape:pageshadow="2"
     inkscape:window-width="640"
     inkscape:window-height="480"
     id="namedview4" /><g
     id="g10"
     inkscape:groupmode="layer"
     inkscape:label="Picto-Design-PAO"
     transform="matrix(1.3333333,0,0,-1.3333333,0,133.33333)"><g
       id="g12"><g
         id="g14"
         clip-path="url(#clipPath18)"><g
           id="g20"
           transform="translate(76.6845,24.8311)"><path
             d="m 0,0 h -72.048 c -0.225,0 -0.409,0.184 -0.409,0.409 V 6.393 H 0.409 V 0.409 C 0.409,0.184 0.226,0 0,0 m 1.638,12.592 c -0.679,0 -1.229,-0.55 -1.229,-1.228 V 8.849 h -72.866 v 39.682 c 0,0.226 0.184,0.409 0.409,0.409 h 7.511 c 0.678,0 1.228,0.55 1.228,1.228 0,0.679 -0.55,1.228 -1.228,1.228 h -7.511 c -1.58,0 -2.865,-1.285 -2.865,-2.865 V 0.409 c 0,-1.58 1.285,-2.866 2.865,-2.866 H 0 c 1.58,0 2.866,1.286 2.866,2.866 v 10.955 c 0,0.678 -0.551,1.228 -1.228,1.228"
             style="fill:#ea4e78;fill-opacity:1;fill-rule:nonzero;stroke:none"
             id="path22" /></g><g
           id="g24"
           transform="translate(69.1737,73.7715)"><path
             d="M 0,0 H 7.511 C 7.736,0 7.92,-0.184 7.92,-0.41 v -2.911 c 0,-0.679 0.55,-1.228 1.228,-1.228 0.678,0 1.229,0.549 1.229,1.228 v 2.911 c 0,1.58 -1.286,2.866 -2.866,2.866 L 0,2.456 c -0.678,0 -1.228,-0.55 -1.228,-1.228 C -1.228,0.55 -0.678,0 0,0"
             style="fill:#ea4e78;fill-opacity:1;fill-rule:nonzero;stroke:none"
             id="path26" /></g><g
           id="g28"
           transform="translate(52.6366,14.4512)"><path
             d="m 0,0 h -4.085 v 4.676 c 0,0.678 -0.55,1.227 -1.228,1.227 -0.679,0 -1.229,-0.549 -1.229,-1.227 V 0 H -17.41 v 4.676 c 0,0.678 -0.55,1.227 -1.228,1.227 -0.679,0 -1.229,-0.549 -1.229,-1.227 V 0 h -4.085 c -0.678,0 -1.228,-0.55 -1.228,-1.228 0,-0.678 0.55,-1.228 1.228,-1.228 H 0 c 0.678,0 1.228,0.55 1.228,1.228 C 1.228,-0.55 0.678,0 0,0"
             style="fill:#ea4e78;fill-opacity:1;fill-rule:nonzero;stroke:none"
             id="path30" /></g><g
           id="g32"
           transform="translate(16.7601,37.8828)"><path
             d="M 0,0 C 0.678,0 1.228,0.55 1.228,1.229 V 45.973 H 46.573 V 28.08 c 0,-0.679 0.55,-1.228 1.228,-1.228 0.678,0 1.228,0.549 1.228,1.228 v 19.121 c 0,0.678 -0.55,1.228 -1.228,1.228 L 0,48.429 c -0.678,0 -1.228,-0.55 -1.228,-1.228 V 1.229 C -1.228,0.55 -0.678,0 0,0"
             style="fill:#ea4e78;fill-opacity:1;fill-rule:nonzero;stroke:none"
             id="path34" /></g><g
           id="g36"
           transform="translate(40.0131,29.7021)"><path
             d="m 0,0 c -0.937,0 -1.698,-0.761 -1.698,-1.698 0,-0.938 0.761,-1.698 1.698,-1.698 0.938,0 1.698,0.76 1.698,1.698 C 1.698,-0.761 0.938,0 0,0"
             style="fill:#ea4e78;fill-opacity:1;fill-rule:nonzero;stroke:none"
             id="path38" /></g><g
           id="g40"
           transform="translate(26.8148,77.9858)"><path
             d="M 0,0 C 0,0.064 0.052,0.117 0.117,0.117 H 8.588 C 8.652,0.117 8.705,0.064 8.705,0 v -8.471 c 0,-0.064 -0.053,-0.117 -0.117,-0.117 H 0.117 C 0.052,-8.588 0,-8.535 0,-8.471 Z m 0.117,-11.044 h 8.471 c 1.419,0 2.574,1.154 2.574,2.573 V 0 c 0,1.419 -1.155,2.574 -2.574,2.574 H 0.117 C -1.302,2.574 -2.457,1.419 -2.457,0 v -8.471 c 0,-1.419 1.155,-2.573 2.574,-2.573"
             style="fill:#ea4e78;fill-opacity:1;fill-rule:nonzero;stroke:none"
             id="path42" /></g><g
           id="g44"
           transform="translate(56.3329,76.9248)"><path
             d="m 0,0 h -13.316 c -0.678,0 -1.228,-0.549 -1.228,-1.228 0,-0.678 0.55,-1.228 1.228,-1.228 H 0 c 0.679,0 1.229,0.55 1.229,1.228 C 1.229,-0.549 0.679,0 0,0"
             style="fill:#ea4e78;fill-opacity:1;fill-rule:nonzero;stroke:none"
             id="path46" /></g><g
           id="g48"
           transform="translate(56.3329,69.3276)"><path
             d="m 0,0 h -13.316 c -0.678,0 -1.228,-0.55 -1.228,-1.228 0,-0.678 0.55,-1.228 1.228,-1.228 H 0 c 0.679,0 1.229,0.55 1.229,1.228 C 1.229,-0.55 0.679,0 0,0"
             style="fill:#ea4e78;fill-opacity:1;fill-rule:nonzero;stroke:none"
             id="path50" /></g><g
           id="g52"
           transform="translate(56.0722,61.584)"><path
             d="m 0,0 h -30.823 c -0.678,0 -1.228,-0.55 -1.228,-1.228 0,-0.678 0.55,-1.228 1.228,-1.228 H 0 c 0.679,0 1.228,0.55 1.228,1.228 C 1.228,-0.55 0.679,0 0,0"
             style="fill:#ea4e78;fill-opacity:1;fill-rule:nonzero;stroke:none"
             id="path54" /></g><g
           id="g56"
           transform="translate(56.0722,53.9868)"><path
             d="m 0,0 h -30.823 c -0.678,0 -1.228,-0.55 -1.228,-1.228 0,-0.678 0.55,-1.228 1.228,-1.228 H 0 c 0.679,0 1.228,0.55 1.228,1.228 C 1.228,-0.55 0.679,0 0,0"
             style="fill:#ea4e78;fill-opacity:1;fill-rule:nonzero;stroke:none"
             id="path58" /></g><g
           id="g60"
           transform="translate(56.0722,46.3896)"><path
             d="m 0,0 h -30.823 c -0.678,0 -1.228,-0.55 -1.228,-1.229 0,-0.677 0.55,-1.227 1.228,-1.227 H 0 c 0.679,0 1.228,0.55 1.228,1.227 C 1.228,-0.55 0.679,0 0,0"
             style="fill:#ea4e78;fill-opacity:1;fill-rule:nonzero;stroke:none"
             id="path62" /></g><g
           id="g64"
           transform="translate(73.4452,57.1479)"><path
             d="m 0,0 c -0.514,0.472 -1.312,0.439 -1.784,-0.074 -0.472,-0.513 -0.44,-1.311 0.074,-1.783 l 5.818,-5.357 c 0.234,-0.215 0.539,-0.334 0.855,-0.334 0.025,0 0.052,0.001 0.077,0.003 0.343,0.021 0.662,0.18 0.885,0.442 L 20.273,9.772 c 0.453,0.532 0.388,1.328 -0.143,1.78 -0.531,0.451 -1.328,0.387 -1.779,-0.144 L 4.852,-4.467 Z"
             style="fill:#ea4e78;fill-opacity:1;fill-rule:nonzero;stroke:none"
             id="path66" /></g><g
           id="g68"
           transform="translate(96.1698,29.7363)"><path
             d="m 0,0 -7.515,9.03 1.874,1.56 7.515,-9.03 z m 3.956,3.006 -7.796,9.368 c -0.439,0.527 -1.086,0.83 -1.772,0.83 -0.537,0 -1.061,-0.188 -1.474,-0.533 l -0.056,-0.045 -0.714,0.883 c 0.056,0.054 0.113,0.109 0.169,0.165 1.307,1.308 2.334,2.832 3.051,4.528 0.743,1.757 1.12,3.623 1.12,5.546 0,1.507 -0.234,2.992 -0.697,4.414 -0.216,0.663 -0.928,1.025 -1.591,0.809 -0.663,-0.216 -1.025,-0.928 -0.809,-1.591 0.38,-1.169 0.573,-2.391 0.573,-3.632 0,-6.464 -5.259,-11.722 -11.722,-11.722 -6.463,0 -11.721,5.258 -11.721,11.722 0,6.463 5.258,11.721 11.721,11.721 1.47,0 2.903,-0.268 4.259,-0.797 0.649,-0.253 1.381,0.068 1.635,0.718 0.253,0.649 -0.069,1.381 -0.718,1.634 -1.649,0.644 -3.391,0.97 -5.176,0.97 -1.923,0 -3.788,-0.377 -5.546,-1.12 -1.696,-0.717 -3.219,-1.745 -4.527,-3.052 -1.309,-1.308 -2.335,-2.832 -3.053,-4.529 -0.743,-1.756 -1.12,-3.623 -1.12,-5.545 0,-1.923 0.377,-3.789 1.12,-5.546 0.718,-1.696 1.744,-3.22 3.053,-4.528 1.308,-1.308 2.831,-2.335 4.527,-3.052 1.758,-0.744 3.623,-1.12 5.546,-1.12 1.923,0 3.789,0.376 5.546,1.12 0.844,0.357 1.646,0.79 2.399,1.297 l 0.735,-0.908 -0.216,-0.18 C -9.771,10.437 -10.063,9.882 -10.119,9.27 -10.176,8.656 -9.989,8.058 -9.596,7.585 L -1.8,-1.784 c 0.44,-0.528 1.085,-0.83 1.773,-0.83 0.537,0 1.06,0.189 1.473,0.533 L 3.658,-0.24 C 4.132,0.153 4.423,0.708 4.479,1.321 4.535,1.935 4.35,2.532 3.956,3.006"
             style="fill:#ea4e78;fill-opacity:1;fill-rule:nonzero;stroke:none"
             id="path70" /></g></g></g></g></svg>
