<?xml version="1.0" encoding="UTF-8" standalone="no"?>
<svg
   xmlns:dc="http://purl.org/dc/elements/1.1/"
   xmlns:cc="http://creativecommons.org/ns#"
   xmlns:rdf="http://www.w3.org/1999/02/22-rdf-syntax-ns#"
   xmlns:svg="http://www.w3.org/2000/svg"
   xmlns="http://www.w3.org/2000/svg"
   xmlns:sodipodi="http://sodipodi.sourceforge.net/DTD/sodipodi-0.dtd"
   xmlns:inkscape="http://www.inkscape.org/namespaces/inkscape"
   version="1.1"
   id="svg2"
   xml:space="preserve"
   width="106.66667"
   height="133.33333"
   viewBox="0 0 106.66667 133.33333"
   sodipodi:docname="Picto-Devis-sur-mesure.ai"><metadata
     id="metadata8"><rdf:RDF><cc:Work
         rdf:about=""><dc:format>image/svg+xml</dc:format><dc:type
           rdf:resource="http://purl.org/dc/dcmitype/StillImage" /></cc:Work></rdf:RDF></metadata><defs
     id="defs6"><clipPath
       clipPathUnits="userSpaceOnUse"
       id="clipPath18"><path
         d="M 0,100 H 80 V 0 H 0 Z"
         id="path16" /></clipPath></defs><sodipodi:namedview
     pagecolor="#ffffff"
     bordercolor="#666666"
     borderopacity="1"
     objecttolerance="10"
     gridtolerance="10"
     guidetolerance="10"
     inkscape:pageopacity="0"
     inkscape:pageshadow="2"
     inkscape:window-width="640"
     inkscape:window-height="480"
     id="namedview4" /><g
     id="g10"
     inkscape:groupmode="layer"
     inkscape:label="Picto-Devis-sur-mesure"
     transform="matrix(1.3333333,0,0,-1.3333333,0,133.33333)"><g
       id="g12"><g
         id="g14"
         clip-path="url(#clipPath18)"><g
           id="g20"
           transform="translate(61.4404,5.5312)"><path
             d="m 0,0 c -1.679,0 -3.308,0.329 -4.84,0.978 -1.48,0.626 -2.81,1.522 -3.952,2.664 -1.142,1.141 -2.038,2.471 -2.664,3.952 -0.648,1.533 -0.978,3.161 -0.978,4.84 0,1.678 0.33,3.307 0.978,4.84 0.625,1.479 1.521,2.809 2.664,3.953 1.142,1.141 2.472,2.037 3.952,2.664 1.532,0.648 3.161,0.977 4.84,0.977 1.032,0 2.059,-0.127 3.052,-0.377 C 4.016,24.247 4.95,23.887 5.829,23.42 6.33,23.153 6.521,22.529 6.255,22.028 6.126,21.786 5.91,21.607 5.647,21.526 5.549,21.496 5.447,21.481 5.346,21.481 5.179,21.481 5.012,21.523 4.863,21.603 3.377,22.393 1.695,22.81 0,22.81 c -5.722,0 -10.376,-4.655 -10.376,-10.376 0,-5.722 4.654,-10.376 10.376,-10.376 5.722,0 10.376,4.654 10.376,10.376 0,1.401 -0.273,2.759 -0.814,4.039 -0.108,0.253 -0.11,0.532 -0.006,0.787 0.103,0.255 0.299,0.454 0.552,0.561 0.127,0.054 0.262,0.081 0.4,0.081 0.415,0 0.787,-0.247 0.948,-0.628 0.649,-1.534 0.979,-3.163 0.979,-4.84 0,-1.678 -0.33,-3.306 -0.979,-4.84 C 10.83,6.112 9.934,4.782 8.792,3.642 7.651,2.501 6.321,1.604 4.841,0.978 3.308,0.329 1.68,0 0,0"
             style="fill:#ea4e78;fill-opacity:1;fill-rule:nonzero;stroke:none"
             id="path22" /></g><g
           id="g24"
           transform="translate(47.3242,10.3867)"><path
             d="m 0,0 c -0.421,0 -0.808,0.246 -0.985,0.628 -1.382,2.955 -1.864,6.221 -1.392,9.442 0.043,0.287 0.194,0.541 0.427,0.714 0.19,0.142 0.414,0.216 0.648,0.216 0.053,0 0.106,-0.003 0.158,-0.011 0.594,-0.088 1.006,-0.64 0.919,-1.234 C -0.634,6.956 -0.216,4.118 0.985,1.549 1.239,1.006 1.004,0.357 0.461,0.103 0.313,0.034 0.159,0 0,0"
             style="fill:#ea4e78;fill-opacity:1;fill-rule:nonzero;stroke:none"
             id="path26" /></g><g
           id="g28"
           transform="translate(68.7998,37.2119)"><path
             d="M 0,0 0.187,0.753 -4.784,1.979 -4.97,1.227 Z m -3.311,-2.984 0.364,1.471 -0.116,0.029 -0.364,-1.471 z m -10.244,-0.694 c 0.091,0.036 0.183,0.073 0.274,0.107 l -0.451,1.181 -0.275,-0.104 z M 5.299,-8.308 6.284,-7.439 6.157,-7.295 5.173,-8.162 C 5.216,-8.21 5.258,-8.259 5.299,-8.308 M -7.352,-35.819 c -1.337,0 -2.683,0.165 -3.998,0.489 -1.883,0.465 -3.649,1.24 -5.248,2.306 -0.241,0.16 -0.406,0.405 -0.463,0.69 -0.057,0.284 0,0.575 0.162,0.817 0.161,0.243 0.407,0.407 0.691,0.463 0.071,0.015 0.144,0.022 0.216,0.022 0.213,0 0.421,-0.063 0.599,-0.182 1.392,-0.927 2.927,-1.6 4.564,-2.004 1.14,-0.281 2.307,-0.424 3.469,-0.424 6.683,0.001 12.468,4.534 14.069,11.022 1.913,7.758 -2.842,15.625 -10.599,17.538 -1.137,0.281 -2.309,0.423 -3.482,0.423 -1.396,0 -2.778,-0.2 -4.111,-0.595 -0.04,-0.017 -0.094,-0.033 -0.148,-0.045 -0.666,-0.205 -1.335,-0.465 -1.974,-0.77 -0.041,-0.027 -0.103,-0.059 -0.168,-0.083 -2.027,-0.999 -3.819,-2.488 -5.181,-4.302 -0.175,-0.233 -0.43,-0.383 -0.717,-0.424 -0.052,-0.007 -0.103,-0.011 -0.155,-0.011 -0.236,0 -0.461,0.076 -0.652,0.218 -0.231,0.175 -0.381,0.43 -0.422,0.717 -0.041,0.287 0.032,0.573 0.206,0.806 0.965,1.286 2.112,2.424 3.408,3.384 0.561,0.416 1.154,0.8 1.764,1.142 l -0.905,2.367 c -0.103,0.273 -0.095,0.568 0.024,0.833 0.118,0.265 0.333,0.468 0.603,0.571 l 2.307,0.881 c 0.125,0.048 0.256,0.073 0.389,0.073 0.153,0 0.302,-0.032 0.443,-0.095 0.265,-0.118 0.469,-0.334 0.572,-0.606 l 0.892,-2.332 c 1.252,0.298 2.535,0.45 3.817,0.45 0.599,0 1.205,-0.034 1.806,-0.099 l 0.398,1.615 -1.371,0.339 c -0.282,0.069 -0.52,0.245 -0.671,0.493 -0.15,0.248 -0.194,0.541 -0.125,0.823 l 0.706,2.865 c 0.071,0.282 0.245,0.52 0.493,0.671 0.171,0.102 0.366,0.157 0.562,0.157 0.088,0 0.176,-0.011 0.263,-0.032 L 1.763,2.605 C 2.046,2.534 2.284,2.359 2.434,2.111 2.584,1.862 2.628,1.57 2.559,1.288 L 1.853,-1.576 C 1.731,-2.063 1.298,-2.404 0.797,-2.404 c -0.088,0 -0.176,0.01 -0.262,0.032 l -1.371,0.338 -0.398,-1.614 c 1.372,-0.54 2.666,-1.262 3.85,-2.148 0.348,-0.26 0.689,-0.536 1.017,-0.824 l 1.902,1.677 c 0.199,0.174 0.454,0.271 0.719,0.271 0.358,-0.02 0.624,-0.15 0.816,-0.369 l 1.565,-1.777 c 0.396,-0.45 0.353,-1.138 -0.097,-1.536 l -1.933,-1.702 c 0.103,-0.158 0.203,-0.317 0.298,-0.475 1.119,-1.852 1.86,-3.869 2.199,-5.998 0.352,-2.203 0.257,-4.427 -0.281,-6.612 -0.539,-2.182 -1.489,-4.196 -2.826,-5.985 -1.29,-1.725 -2.883,-3.167 -4.735,-4.286 -1.851,-1.119 -3.869,-1.859 -5.997,-2.199 -0.862,-0.138 -1.741,-0.208 -2.615,-0.208"
             style="fill:#ea4e78;fill-opacity:1;fill-rule:nonzero;stroke:none"
             id="path30" /></g><g
           id="g32"
           transform="translate(61.2734,15.7578)"><path
             d="m 0,0 -0.176,0.043 0.001,0.004 -0.143,0.062 0.036,0.21 -0.13,-0.154 -0.088,0.067 -4.522,4.546 c -0.194,0.195 -0.3,0.453 -0.299,0.729 10e-4,0.273 0.109,0.532 0.303,0.725 0.195,0.194 0.453,0.3 0.726,0.3 0.278,-0.001 0.536,-0.109 0.73,-0.304 l 3.711,-3.736 7.546,7.959 c 0.19,0.199 0.446,0.313 0.72,0.32 h 0.001 c 0.291,0 0.543,-0.1 0.734,-0.281 C 9.35,10.301 9.463,10.046 9.471,9.771 9.478,9.495 9.378,9.234 9.188,9.035 L 0.9,0.294 0.807,0.211 0.724,0.15 0.636,0.101 0.531,0.053 0.432,0.021 0.305,0.198 0.325,-0.001 0.198,-0.013 0.196,-0.026 Z"
             style="fill:#ea4e78;fill-opacity:1;fill-rule:nonzero;stroke:none"
             id="path34" /></g><g
           id="g36"
           transform="translate(34.5049,23.292)"><path
             d="m 0,0 c -0.6,0 -1.087,0.488 -1.087,1.088 0,0.599 0.487,1.087 1.087,1.087 h 4.547 c 0.6,0 1.088,-0.488 1.088,-1.087 C 5.635,0.488 5.147,0 4.547,0 Z"
             style="fill:#ea4e78;fill-opacity:1;fill-rule:nonzero;stroke:none"
             id="path38" /></g><g
           id="g40"
           transform="translate(44.9893,23.292)"><path
             d="M 0,0 C -0.6,0 -1.088,0.488 -1.088,1.088 -1.088,1.687 -0.6,2.175 0,2.175 H 0.631 C 1.23,2.175 1.719,1.687 1.719,1.088 1.719,0.488 1.23,0 0.631,0 Z"
             style="fill:#ea4e78;fill-opacity:1;fill-rule:nonzero;stroke:none"
             id="path42" /></g><g
           id="g44"
           transform="translate(36.2104,15.0947)"><path
             d="m 0,0 c -0.6,0 -1.088,0.488 -1.088,1.088 0,0.599 0.488,1.088 1.088,1.088 h 4.547 c 0.6,0 1.087,-0.489 1.087,-1.088 C 5.634,0.488 5.147,0 4.547,0 Z"
             style="fill:#ea4e78;fill-opacity:1;fill-rule:nonzero;stroke:none"
             id="path46" /></g><g
           id="g48"
           transform="translate(32.291,15.0947)"><path
             d="M 0,0 C -0.6,0 -1.087,0.488 -1.087,1.088 -1.087,1.687 -0.6,2.176 0,2.176 H 0.632 C 1.231,2.176 1.72,1.687 1.72,1.088 1.72,0.488 1.231,0 0.632,0 Z"
             style="fill:#ea4e78;fill-opacity:1;fill-rule:nonzero;stroke:none"
             id="path50" /></g><g
           id="g52"
           transform="translate(38.168,6.4922)"><path
             d="M 0,0 C -0.6,0 -1.087,0.488 -1.087,1.088 -1.087,1.687 -0.6,2.176 0,2.176 H 1.769 C 2.368,2.176 2.856,1.687 2.856,1.088 2.856,0.488 2.368,0 1.769,0 Z"
             style="fill:#ea4e78;fill-opacity:1;fill-rule:nonzero;stroke:none"
             id="path54" /></g><g
           id="g56"
           transform="translate(44.4834,6.4922)"><path
             d="M 0,0 C -0.6,0 -1.088,0.488 -1.088,1.088 -1.088,1.687 -0.6,2.176 0,2.176 H 4.492 C 5.092,2.176 5.58,1.687 5.58,1.088 5.58,0.488 5.092,0 4.492,0 Z"
             style="fill:#ea4e78;fill-opacity:1;fill-rule:nonzero;stroke:none"
             id="path58" /></g><g
           id="g60"
           transform="translate(44.4834,30.7725)"><path
             d="m 0,0 c -0.6,0 -1.088,0.488 -1.088,1.088 0,0.599 0.488,1.088 1.088,1.088 h 2.273 c 0.6,0 1.088,-0.489 1.088,-1.088 C 3.361,0.488 2.873,0 2.273,0 Z"
             style="fill:#ea4e78;fill-opacity:1;fill-rule:nonzero;stroke:none"
             id="path62" /></g><g
           id="g64"
           transform="translate(39.3052,30.7725)"><path
             d="m 0,0 c -0.6,0 -1.088,0.488 -1.088,1.088 0,0.599 0.488,1.088 1.088,1.088 h 0.631 c 0.6,0 1.088,-0.489 1.088,-1.088 C 1.719,0.488 1.231,0 0.631,0 Z"
             style="fill:#ea4e78;fill-opacity:1;fill-rule:nonzero;stroke:none"
             id="path66" /></g><g
           id="g68"
           transform="translate(16.9248,96.5864)"><path
             d="M 0,0 C -0.623,0 -1.149,-0.447 -1.251,-1.062 L -12.86,-71.248 c -0.056,-0.335 0.023,-0.67 0.221,-0.947 0.198,-0.276 0.491,-0.459 0.825,-0.513 l 2.512,-0.417 10.984,66.412 c 0.275,1.663 1.697,2.869 3.381,2.869 0.185,0 0.373,-0.014 0.561,-0.046 l 44.887,-7.424 0.271,1.644 c 0.114,0.691 -0.354,1.346 -1.046,1.461 L 0.209,-0.018 C 0.139,-0.006 0.069,0 0,0 m 7.681,-83.238 c -0.058,0 -0.118,0.005 -0.177,0.015 l -14.608,2.384 c -1.865,0.308 -3.131,2.077 -2.823,3.941 l 0.272,1.645 -2.512,0.416 c -0.901,0.149 -1.692,0.641 -2.226,1.386 -0.534,0.745 -0.746,1.653 -0.596,2.555 L -3.38,-0.712 c 0.275,1.663 1.696,2.87 3.38,2.87 0.185,0 0.373,-0.015 0.562,-0.047 L 50.089,-6.08 c 1.865,-0.309 3.131,-2.077 2.822,-3.941 l -0.271,-1.645 2.511,-0.416 c 0.902,-0.148 1.693,-0.642 2.227,-1.387 0.533,-0.745 0.745,-1.652 0.596,-2.554 l -5.852,-35.381 c -0.087,-0.524 -0.534,-0.904 -1.064,-0.904 -0.058,0 -0.118,0.005 -0.177,0.015 -0.587,0.098 -0.985,0.654 -0.888,1.24 l 5.853,35.381 c 0.054,0.335 -0.024,0.671 -0.222,0.947 -0.198,0.277 -0.491,0.459 -0.825,0.514 L 5.271,-6.019 c -0.069,0.012 -0.138,0.017 -0.207,0.017 -0.624,0 -1.151,-0.447 -1.253,-1.062 L -7.798,-77.25 c -0.114,-0.691 0.355,-1.346 1.047,-1.46 l 14.607,-2.384 c 0.587,-0.097 0.986,-0.654 0.889,-1.24 -0.087,-0.524 -0.534,-0.904 -1.064,-0.904"
             style="fill:#ea4e78;fill-opacity:1;fill-rule:nonzero;stroke:none"
             id="path70" /></g><g
           id="g72"
           transform="translate(30.7705,65.8403)"><path
             d="M 0,0 C -0.307,0.051 -0.549,0.196 -0.717,0.416 L -4.86,5.854 c -0.36,0.474 -0.268,1.153 0.205,1.513 0.189,0.145 0.415,0.221 0.653,0.221 0.34,0 0.653,-0.155 0.859,-0.426 l 3.486,-4.576 7.62,5.858 c 0.191,0.147 0.418,0.225 0.658,0.225 0.337,0 0.65,-0.153 0.855,-0.421 C 9.838,7.776 9.75,7.098 9.279,6.735 L 0.799,0.215 C 0.612,0.07 0.378,-0.009 0.141,-0.009 0.141,-0.009 0.047,-0.006 0,0"
             style="fill:#ea4e78;fill-opacity:1;fill-rule:nonzero;stroke:none"
             id="path74" /></g><g
           id="g76"
           transform="translate(28.4565,50.981)"><path
             d="M 0,0 C -0.047,0 -0.095,0.003 -0.143,0.01 -0.45,0.061 -0.692,0.206 -0.859,0.426 l -4.143,5.438 c -0.175,0.229 -0.249,0.512 -0.211,0.798 0.039,0.286 0.186,0.539 0.416,0.714 0.189,0.145 0.415,0.221 0.653,0.221 0.34,0 0.653,-0.156 0.858,-0.425 l 3.487,-4.576 7.62,5.858 c 0.19,0.147 0.417,0.224 0.657,0.224 0.338,0 0.65,-0.154 0.856,-0.421 C 9.696,7.785 9.608,7.106 9.136,6.744 L 0.657,0.225 C 0.47,0.08 0.236,0 0,0"
             style="fill:#ea4e78;fill-opacity:1;fill-rule:nonzero;stroke:none"
             id="path78" /></g><g
           id="g80"
           transform="translate(25.9609,35.8945)"><path
             d="M 0,0 C -0.047,0 -0.095,0.003 -0.143,0.01 -0.448,0.059 -0.69,0.205 -0.859,0.426 l -4.143,5.438 c -0.174,0.229 -0.249,0.513 -0.211,0.798 0.039,0.286 0.186,0.539 0.416,0.714 0.189,0.145 0.415,0.221 0.653,0.221 0.34,0 0.653,-0.156 0.859,-0.425 l 3.486,-4.577 7.62,5.859 c 0.19,0.147 0.417,0.224 0.657,0.224 0.338,0 0.65,-0.154 0.856,-0.421 C 9.696,7.785 9.608,7.106 9.137,6.744 L 0.658,0.224 C 0.469,0.079 0.236,0 0,0 Z"
             style="fill:#ea4e78;fill-opacity:1;fill-rule:nonzero;stroke:none"
             id="path82" /></g><g
           id="g84"
           transform="translate(61.2148,66.2202)"><path
             d="M 0,0 C -0.058,0 -0.117,0.005 -0.177,0.015 L -12.01,1.973 c -0.284,0.047 -0.533,0.202 -0.701,0.435 -0.168,0.235 -0.234,0.52 -0.187,0.804 0.086,0.523 0.533,0.903 1.062,0.903 0.059,0 0.118,-0.005 0.179,-0.014 L 0.176,2.144 C 0.763,2.047 1.161,1.49 1.064,0.903 0.978,0.38 0.53,0 0.001,0 Z"
             style="fill:#ea4e78;fill-opacity:1;fill-rule:nonzero;stroke:none"
             id="path86" /></g><g
           id="g88"
           transform="translate(54.6182,63.0864)"><path
             d="M 0,0 C -0.058,0 -0.117,0.005 -0.177,0.015 L -5.97,0.973 c -0.284,0.047 -0.533,0.202 -0.701,0.436 -0.168,0.235 -0.234,0.521 -0.187,0.805 0.087,0.522 0.534,0.902 1.063,0.902 0.059,0 0.117,-0.005 0.177,-0.014 L 0.176,2.144 C 0.46,2.097 0.709,1.941 0.877,1.707 1.044,1.473 1.11,1.187 1.063,0.903 0.978,0.38 0.53,0 0,0"
             style="fill:#ea4e78;fill-opacity:1;fill-rule:nonzero;stroke:none"
             id="path90" /></g><g
           id="g92"
           transform="translate(58.8086,51.6636)"><path
             d="m 0,0 c -0.059,0 -0.118,0.005 -0.179,0.015 l -11.833,1.957 c -0.284,0.047 -0.533,0.202 -0.701,0.435 -0.168,0.235 -0.234,0.521 -0.186,0.806 0.086,0.522 0.533,0.902 1.063,0.902 0.058,0 0.117,-0.005 0.177,-0.014 L 0.175,2.143 C 0.459,2.096 0.708,1.94 0.876,1.707 1.043,1.473 1.109,1.187 1.062,0.903 0.977,0.38 0.529,0 0.001,0 Z"
             style="fill:#ea4e78;fill-opacity:1;fill-rule:nonzero;stroke:none"
             id="path94" /></g><g
           id="g96"
           transform="translate(52.2109,48.627)"><path
             d="m 0,0 c -0.054,0 -0.107,0.005 -0.161,0.014 l -5.794,0.957 c -0.259,0.043 -0.485,0.184 -0.638,0.397 -0.152,0.214 -0.213,0.473 -0.17,0.732 0.079,0.476 0.486,0.821 0.968,0.821 0.053,0 0.107,-0.004 0.16,-0.013 L 0.159,1.95 C 0.692,1.861 1.055,1.354 0.967,0.822 0.888,0.346 0.481,0 0,0"
             style="fill:#ea4e78;fill-opacity:1;fill-rule:nonzero;stroke:none"
             id="path98" /></g></g></g></g></svg>
