<svg id="Calque_1" data-name="Calque 1" xmlns="http://www.w3.org/2000/svg" viewBox="0 0 422.2 71.53"><defs><style>.cls-1{fill:#1d1d1b;}.cls-2{fill:#e83577;}.cls-3{fill:#16bae7;}.cls-4{fill:#ffd605;}</style></defs><path class="cls-1" d="M285.73,306.58H289l4.63,10.81,4.62-10.81h3.29v14.54h-2.91v-9.45l-3.9,9.45h-2.21l-3.91-9.45v9.45h-2.92Z" transform="translate(-197.14 -250.09)"/><path class="cls-1" d="M315.46,318.35h-5.79l-1,2.77h-3.06l5.22-14.56h3.4l5.23,14.56h-3.09Zm-2.9-8.41-2.1,6.08h4.2Z" transform="translate(-197.14 -250.09)"/><path class="cls-1" d="M329,306.58c3.49,0,5.24,2,5.24,4.46a4.2,4.2,0,0,1-3.31,4.19l3.48,5.89H331l-3.21-5.66h-1.38v5.66h-2.91V306.58Zm-.11,2.42h-2.44v4.27h2.44c1.63,0,2.35-.85,2.35-2.17S330.52,309,328.89,309Z" transform="translate(-197.14 -250.09)"/><path class="cls-1" d="M341.89,314.64v6.48H339V306.58h2.92v6.52l5.29-6.52h3.52l-6,7.21,6.17,7.33h-3.69Z" transform="translate(-197.14 -250.09)"/><path class="cls-1" d="M363.3,308.94h-5.52v3.64h4.9v2.31h-4.9v3.86h5.52v2.37h-8.43V306.56h8.43Z" transform="translate(-197.14 -250.09)"/><path class="cls-1" d="M367.26,306.58h10.66v2.36h-3.87v12.18h-2.92V308.94h-3.87Z" transform="translate(-197.14 -250.09)"/><path class="cls-1" d="M382.13,306.58h2.92v14.54h-2.92Z" transform="translate(-197.14 -250.09)"/><path class="cls-1" d="M402.44,306.56v14.56h-2.92l-6.6-10v10H390V306.56h2.92l6.6,10v-10Z" transform="translate(-197.14 -250.09)"/><path class="cls-1" d="M420.87,311h-3.35a3.66,3.66,0,0,0-3.42-1.88c-2.6,0-4.41,1.86-4.41,4.75s1.83,4.79,4.54,4.79a3.94,3.94,0,0,0,4.12-3.35h-5V313h7.88v2.54a7.12,7.12,0,0,1-7.11,5.67,7.43,7.43,0,0,1,0-14.85C417.35,306.4,419.94,308,420.87,311Z" transform="translate(-197.14 -250.09)"/><path class="cls-1" d="M437.87,315.54h-2.44v5.58h-2.91V306.58h5.35c3.5,0,5.25,2,5.25,4.5C443.12,313.29,441.62,315.54,437.87,315.54Zm-.12-2.35c1.64,0,2.37-.82,2.37-2.11s-.73-2.12-2.37-2.12h-2.32v4.23Z" transform="translate(-197.14 -250.09)"/><path class="cls-1" d="M454,321.27a7.45,7.45,0,1,1,7.44-7.46A7.3,7.3,0,0,1,454,321.27Zm0-2.61c2.63,0,4.44-1.89,4.44-4.85S456.64,309,454,309s-4.45,1.85-4.45,4.81S451.37,318.66,454,318.66Z" transform="translate(-197.14 -250.09)"/><path class="cls-1" d="M465.7,306.58h2.91v14.54H465.7Z" transform="translate(-197.14 -250.09)"/><path class="cls-1" d="M486,306.56v14.56h-2.92l-6.6-10v10h-2.92V306.56h2.92l6.6,10v-10Z" transform="translate(-197.14 -250.09)"/><path class="cls-1" d="M490.19,306.58h10.67v2.36H497v12.18h-2.91V308.94h-3.88Z" transform="translate(-197.14 -250.09)"/><path class="cls-1" d="M524.85,313.87c0,4.4-3,7.25-7.66,7.25h-5.08V306.58h5.08C521.83,306.58,524.85,309.46,524.85,313.87Zm-7.77,4.77c3.07,0,4.8-1.75,4.8-4.77s-1.73-4.83-4.8-4.83H515v9.6Z" transform="translate(-197.14 -250.09)"/><path class="cls-1" d="M537.56,308.94H532v3.64h4.89v2.31H532v3.86h5.52v2.37h-8.44V306.56h8.44Z" transform="translate(-197.14 -250.09)"/><path class="cls-1" d="M559.28,306.58h3.11l-5.34,14.54h-3.54l-5.33-14.54h3.13l4,11.56Z" transform="translate(-197.14 -250.09)"/><path class="cls-1" d="M574.66,308.94h-5.52v3.64H574v2.31h-4.89v3.86h5.52v2.37h-8.44V306.56h8.44Z" transform="translate(-197.14 -250.09)"/><path class="cls-1" d="M591.82,306.56v14.56H588.9l-6.6-10v10h-2.92V306.56h2.92l6.6,10v-10Z" transform="translate(-197.14 -250.09)"/><path class="cls-1" d="M596,306.58h10.66v2.36H602.8v12.18h-2.92V308.94H596Z" transform="translate(-197.14 -250.09)"/><path class="cls-1" d="M619.31,308.94h-5.52v3.64h4.9v2.31h-4.9v3.86h5.52v2.37h-8.43V306.56h8.43Z" transform="translate(-197.14 -250.09)"/><polygon class="cls-1" points="88.58 0 97.5 0 97.5 17.84 112.37 0 122.4 0 104.94 20.82 126.05 44.61 114.45 44.61 97.5 25.34 97.5 44.61 88.58 44.61 88.58 0"/><path class="cls-1" d="M348,286.37a12.55,12.55,0,0,0,9.64-4,15.24,15.24,0,0,0,0-19.93,13.63,13.63,0,0,0-19.33,0,15.21,15.21,0,0,0,0,19.93,12.6,12.6,0,0,0,9.69,4m-15.94,1.92A23,23,0,1,1,348,294.7a21.61,21.61,0,0,1-15.91-6.41" transform="translate(-197.14 -250.09)"/><polygon class="cls-1" points="179.2 44.61 179.2 0 182.18 0 210.13 27.96 210.13 0 219.05 0 219.05 44.61 215.78 44.61 188.12 16.95 188.12 44.61 179.2 44.61"/><polygon class="cls-1" points="264.1 0 264.1 8.33 249.22 8.33 249.22 44.61 240.3 44.61 240.3 8.33 225.43 8.33 225.43 0 264.1 0"/><polygon class="cls-1" points="270.09 44.61 270.09 0 301.46 0 301.46 8.33 279.01 8.33 279.01 17.84 295.58 17.84 295.58 26.14 279.01 26.14 279.01 44.61 270.09 44.61"/><polygon class="cls-1" points="307.22 44.61 307.22 0.03 339.99 0 339.99 8.33 316.14 8.33 316.14 17.84 334.02 17.84 334.02 26.14 316.14 26.14 316.14 36.28 339.94 36.28 339.94 44.61 307.22 44.61"/><polygon class="cls-1" points="348.25 44.61 348.25 0.03 381.02 0 381.02 8.33 357.17 8.33 357.17 17.84 375.04 17.84 375.04 26.14 357.17 26.14 357.17 36.28 380.96 36.28 380.96 44.61 348.25 44.61"/><polygon class="cls-1" points="398.4 0 398.4 36.28 422.2 36.28 422.2 44.61 389.48 44.61 389.48 0 398.4 0"/><polygon class="cls-2" points="31.87 71.53 16.48 56.13 72.61 0 40.79 0 0 40.79 0 71.53 31.87 71.53"/><polygon class="cls-3" points="0 31.73 0 0 31.39 0 0 31.73"/><polygon class="cls-4" points="41.64 40.41 25.78 56.3 40.98 71.53 72.61 71.53 41.64 40.41"/></svg>