<?xml version="1.0" standalone="no"?>
<!DOCTYPE svg PUBLIC "-//W3C//DTD SVG 20010904//EN"
 "http://www.w3.org/TR/2001/REC-SVG-20010904/DTD/svg10.dtd">
<svg version="1.0" xmlns="http://www.w3.org/2000/svg"
 width="299.000000pt" height="299.000000pt" viewBox="0 0 299.000000 299.000000"
 preserveAspectRatio="xMidYMid meet">
<metadata>
Created by potrace 1.14, written by Peter Selinger 2001-2017
</metadata>
<g transform="translate(0.000000,299.000000) scale(0.100000,-0.100000)"
fill="#000000" stroke="none">
<path d="M0 2333 l0 -658 291 295 c160 162 450 456 645 652 195 196 354 359
354 362 0 3 -290 6 -645 6 l-645 0 0 -657z"/>
<path d="M842 2147 l-842 -842 0 -648 c0 -356 3 -647 8 -648 37 -4 1293 -1
1297 3 3 3 -137 148 -311 322 l-317 318 1156 1156 c636 637 1157 1163 1157
1170 0 9 -138 12 -653 12 l-652 0 -843 -843z"/>
<path d="M1387 972 l-327 -327 319 -319 319 -319 646 -1 c568 -1 646 1 646 14
0 16 -1250 1280 -1266 1280 -5 0 -156 -147 -337 -328z"/>
</g>
</svg>
